G04 #@! TF.FileFunction,Soldermask,Bot*
%FSLAX46Y46*%
G04 Gerber Fmt 4.6, Leading zero omitted, Abs format (unit mm)*
G04 Created by KiCad (PCBNEW 4.0.1-stable) date 2019/01/19 9:27:24*
%MOMM*%
G01*
G04 APERTURE LIST*
%ADD10C,0.100000*%
%ADD11R,2.100000X2.100000*%
%ADD12O,2.100000X2.100000*%
%ADD13C,4.200000*%
G04 APERTURE END LIST*
D10*
D11*
X114404300Y-68020000D03*
D12*
X116944300Y-68020000D03*
X114404300Y-70560000D03*
X116944300Y-70560000D03*
X114404300Y-73100000D03*
X116944300Y-73100000D03*
X114404300Y-75640000D03*
X116944300Y-75640000D03*
X114404300Y-78180000D03*
X116944300Y-78180000D03*
X114404300Y-80720000D03*
X116944300Y-80720000D03*
X114404300Y-83260000D03*
X116944300Y-83260000D03*
X114404300Y-85800000D03*
X116944300Y-85800000D03*
X114404300Y-88340000D03*
X116944300Y-88340000D03*
X114404300Y-90880000D03*
X116944300Y-90880000D03*
X114404300Y-93420000D03*
X116944300Y-93420000D03*
X114404300Y-95960000D03*
X116944300Y-95960000D03*
X114404300Y-98500000D03*
X116944300Y-98500000D03*
X114404300Y-101040000D03*
X116944300Y-101040000D03*
X114404300Y-103580000D03*
X116944300Y-103580000D03*
X114404300Y-106120000D03*
X116944300Y-106120000D03*
X114404300Y-108660000D03*
X116944300Y-108660000D03*
X114404300Y-111200000D03*
X116944300Y-111200000D03*
X114404300Y-113740000D03*
X116944300Y-113740000D03*
X114404300Y-116280000D03*
X116944300Y-116280000D03*
X114404300Y-118820000D03*
X116944300Y-118820000D03*
X114404300Y-121360000D03*
X116944300Y-121360000D03*
X114404300Y-123900000D03*
X116944300Y-123900000D03*
X114404300Y-126440000D03*
X116944300Y-126440000D03*
X114404300Y-128980000D03*
X116944300Y-128980000D03*
D11*
X157740000Y-68020000D03*
D12*
X160280000Y-68020000D03*
X157740000Y-70560000D03*
X160280000Y-70560000D03*
X157740000Y-73100000D03*
X160280000Y-73100000D03*
X157740000Y-75640000D03*
X160280000Y-75640000D03*
X157740000Y-78180000D03*
X160280000Y-78180000D03*
X157740000Y-80720000D03*
X160280000Y-80720000D03*
X157740000Y-83260000D03*
X160280000Y-83260000D03*
X157740000Y-85800000D03*
X160280000Y-85800000D03*
X157740000Y-88340000D03*
X160280000Y-88340000D03*
X157740000Y-90880000D03*
X160280000Y-90880000D03*
X157740000Y-93420000D03*
X160280000Y-93420000D03*
X157740000Y-95960000D03*
X160280000Y-95960000D03*
X157740000Y-98500000D03*
X160280000Y-98500000D03*
X157740000Y-101040000D03*
X160280000Y-101040000D03*
X157740000Y-103580000D03*
X160280000Y-103580000D03*
X157740000Y-106120000D03*
X160280000Y-106120000D03*
X157740000Y-108660000D03*
X160280000Y-108660000D03*
X157740000Y-111200000D03*
X160280000Y-111200000D03*
X157740000Y-113740000D03*
X160280000Y-113740000D03*
X157740000Y-116280000D03*
X160280000Y-116280000D03*
X157740000Y-118820000D03*
X160280000Y-118820000D03*
X157740000Y-121360000D03*
X160280000Y-121360000D03*
X157740000Y-123900000D03*
X160280000Y-123900000D03*
X157740000Y-126440000D03*
X160280000Y-126440000D03*
X157740000Y-128980000D03*
X160280000Y-128980000D03*
D13*
X145150000Y-66300000D03*
X128550000Y-66300000D03*
X128550000Y-112300000D03*
X145150000Y-112300000D03*
M02*
