M48
;DRILL file {KiCad 4.0.1-stable} date 2019/01/19 9:28:24
;FORMAT={-:-/ absolute / inch / decimal}
FMAT,2
INCH,TZ
T1C0.016
T2C0.039
T3C0.087
%
G90
G05
M72
T1
X4.2323Y-2.9724
X4.2323Y-3.3268
X4.2323Y-3.7205
X4.2323Y-4.1339
X4.2323Y-4.5276
X4.2323Y-4.9409
X4.9803Y-2.7756
X5.Y-3.3661
X5.0787Y-4.7244
X5.4724Y-2.7756
X5.4724Y-4.1142
X5.6102Y-4.7244
X6.0039Y-3.2677
X6.5354Y-2.9724
X6.5354Y-3.3071
X6.5354Y-3.7205
X6.5354Y-4.1339
X6.5354Y-4.5079
X6.5354Y-4.9213
T2
X4.5041Y-2.678
X4.5041Y-2.778
X4.5041Y-2.878
X4.5041Y-2.978
X4.5041Y-3.078
X4.5041Y-3.178
X4.5041Y-3.278
X4.5041Y-3.378
X4.5041Y-3.478
X4.5041Y-3.578
X4.5041Y-3.678
X4.5041Y-3.778
X4.5041Y-3.878
X4.5041Y-3.978
X4.5041Y-4.078
X4.5041Y-4.178
X4.5041Y-4.278
X4.5041Y-4.378
X4.5041Y-4.478
X4.5041Y-4.578
X4.5041Y-4.678
X4.5041Y-4.778
X4.5041Y-4.878
X4.5041Y-4.978
X4.5041Y-5.078
X4.6041Y-2.678
X4.6041Y-2.778
X4.6041Y-2.878
X4.6041Y-2.978
X4.6041Y-3.078
X4.6041Y-3.178
X4.6041Y-3.278
X4.6041Y-3.378
X4.6041Y-3.478
X4.6041Y-3.578
X4.6041Y-3.678
X4.6041Y-3.778
X4.6041Y-3.878
X4.6041Y-3.978
X4.6041Y-4.078
X4.6041Y-4.178
X4.6041Y-4.278
X4.6041Y-4.378
X4.6041Y-4.478
X4.6041Y-4.578
X4.6041Y-4.678
X4.6041Y-4.778
X4.6041Y-4.878
X4.6041Y-4.978
X4.6041Y-5.078
X6.2102Y-2.678
X6.2102Y-2.778
X6.2102Y-2.878
X6.2102Y-2.978
X6.2102Y-3.078
X6.2102Y-3.178
X6.2102Y-3.278
X6.2102Y-3.378
X6.2102Y-3.478
X6.2102Y-3.578
X6.2102Y-3.678
X6.2102Y-3.778
X6.2102Y-3.878
X6.2102Y-3.978
X6.2102Y-4.078
X6.2102Y-4.178
X6.2102Y-4.278
X6.2102Y-4.378
X6.2102Y-4.478
X6.2102Y-4.578
X6.2102Y-4.678
X6.2102Y-4.778
X6.2102Y-4.878
X6.2102Y-4.978
X6.2102Y-5.078
X6.3102Y-2.678
X6.3102Y-2.778
X6.3102Y-2.878
X6.3102Y-2.978
X6.3102Y-3.078
X6.3102Y-3.178
X6.3102Y-3.278
X6.3102Y-3.378
X6.3102Y-3.478
X6.3102Y-3.578
X6.3102Y-3.678
X6.3102Y-3.778
X6.3102Y-3.878
X6.3102Y-3.978
X6.3102Y-4.078
X6.3102Y-4.178
X6.3102Y-4.278
X6.3102Y-4.378
X6.3102Y-4.478
X6.3102Y-4.578
X6.3102Y-4.678
X6.3102Y-4.778
X6.3102Y-4.878
X6.3102Y-4.978
X6.3102Y-5.078
T3
X5.061Y-2.6102
X5.061Y-4.4213
X5.7146Y-2.6102
X5.7146Y-4.4213
T0
M30
