G04 #@! TF.FileFunction,Copper,L2,Bot,Signal*
%FSLAX46Y46*%
G04 Gerber Fmt 4.6, Leading zero omitted, Abs format (unit mm)*
G04 Created by KiCad (PCBNEW 4.0.1-stable) date 2019/01/19 9:27:23*
%MOMM*%
G01*
G04 APERTURE LIST*
%ADD10C,0.100000*%
%ADD11R,1.700000X1.700000*%
%ADD12O,1.700000X1.700000*%
%ADD13C,3.800000*%
%ADD14C,0.600000*%
%ADD15C,0.152400*%
%ADD16C,0.304800*%
%ADD17C,0.125000*%
G04 APERTURE END LIST*
D10*
D11*
X114404300Y-68020000D03*
D12*
X116944300Y-68020000D03*
X114404300Y-70560000D03*
X116944300Y-70560000D03*
X114404300Y-73100000D03*
X116944300Y-73100000D03*
X114404300Y-75640000D03*
X116944300Y-75640000D03*
X114404300Y-78180000D03*
X116944300Y-78180000D03*
X114404300Y-80720000D03*
X116944300Y-80720000D03*
X114404300Y-83260000D03*
X116944300Y-83260000D03*
X114404300Y-85800000D03*
X116944300Y-85800000D03*
X114404300Y-88340000D03*
X116944300Y-88340000D03*
X114404300Y-90880000D03*
X116944300Y-90880000D03*
X114404300Y-93420000D03*
X116944300Y-93420000D03*
X114404300Y-95960000D03*
X116944300Y-95960000D03*
X114404300Y-98500000D03*
X116944300Y-98500000D03*
X114404300Y-101040000D03*
X116944300Y-101040000D03*
X114404300Y-103580000D03*
X116944300Y-103580000D03*
X114404300Y-106120000D03*
X116944300Y-106120000D03*
X114404300Y-108660000D03*
X116944300Y-108660000D03*
X114404300Y-111200000D03*
X116944300Y-111200000D03*
X114404300Y-113740000D03*
X116944300Y-113740000D03*
X114404300Y-116280000D03*
X116944300Y-116280000D03*
X114404300Y-118820000D03*
X116944300Y-118820000D03*
X114404300Y-121360000D03*
X116944300Y-121360000D03*
X114404300Y-123900000D03*
X116944300Y-123900000D03*
X114404300Y-126440000D03*
X116944300Y-126440000D03*
X114404300Y-128980000D03*
X116944300Y-128980000D03*
D11*
X157740000Y-68020000D03*
D12*
X160280000Y-68020000D03*
X157740000Y-70560000D03*
X160280000Y-70560000D03*
X157740000Y-73100000D03*
X160280000Y-73100000D03*
X157740000Y-75640000D03*
X160280000Y-75640000D03*
X157740000Y-78180000D03*
X160280000Y-78180000D03*
X157740000Y-80720000D03*
X160280000Y-80720000D03*
X157740000Y-83260000D03*
X160280000Y-83260000D03*
X157740000Y-85800000D03*
X160280000Y-85800000D03*
X157740000Y-88340000D03*
X160280000Y-88340000D03*
X157740000Y-90880000D03*
X160280000Y-90880000D03*
X157740000Y-93420000D03*
X160280000Y-93420000D03*
X157740000Y-95960000D03*
X160280000Y-95960000D03*
X157740000Y-98500000D03*
X160280000Y-98500000D03*
X157740000Y-101040000D03*
X160280000Y-101040000D03*
X157740000Y-103580000D03*
X160280000Y-103580000D03*
X157740000Y-106120000D03*
X160280000Y-106120000D03*
X157740000Y-108660000D03*
X160280000Y-108660000D03*
X157740000Y-111200000D03*
X160280000Y-111200000D03*
X157740000Y-113740000D03*
X160280000Y-113740000D03*
X157740000Y-116280000D03*
X160280000Y-116280000D03*
X157740000Y-118820000D03*
X160280000Y-118820000D03*
X157740000Y-121360000D03*
X160280000Y-121360000D03*
X157740000Y-123900000D03*
X160280000Y-123900000D03*
X157740000Y-126440000D03*
X160280000Y-126440000D03*
X157740000Y-128980000D03*
X160280000Y-128980000D03*
D13*
X145150000Y-66300000D03*
X128550000Y-66300000D03*
X128550000Y-112300000D03*
X145150000Y-112300000D03*
D14*
X139000000Y-104500000D03*
X152500000Y-83000000D03*
X127000000Y-85500000D03*
X139000000Y-70500000D03*
X126500000Y-70500000D03*
X142500000Y-120000000D03*
X129000000Y-120000000D03*
X107500000Y-125500000D03*
X107500000Y-115000000D03*
X107500000Y-105000000D03*
X107500000Y-94500000D03*
X107500000Y-84500000D03*
X107500000Y-75500000D03*
X166000000Y-125000000D03*
X166000000Y-114500000D03*
X166000000Y-105000000D03*
X166000000Y-94500000D03*
X166000000Y-84000000D03*
X166000000Y-75500000D03*
D15*
X126500000Y-70500000D02*
X139000000Y-70500000D01*
X129000000Y-120000000D02*
X142500000Y-120000000D01*
X107500000Y-115000000D02*
X107500000Y-125500000D01*
X107500000Y-94500000D02*
X107500000Y-105000000D01*
X107500000Y-75500000D02*
X107500000Y-84500000D01*
X166000000Y-114500000D02*
X166000000Y-125000000D01*
X166000000Y-94500000D02*
X166000000Y-105000000D01*
X166000000Y-75500000D02*
X166000000Y-84000000D01*
D16*
X116944300Y-68020000D02*
X114404300Y-68020000D01*
X160280000Y-68020000D02*
X157740000Y-68020000D01*
D15*
X157740000Y-113740000D02*
X158589999Y-114589999D01*
X158589999Y-114589999D02*
X160280000Y-116280000D01*
D17*
G36*
X126717791Y-65073443D02*
X126387876Y-65867965D01*
X126387125Y-66728261D01*
X126715653Y-67523358D01*
X127323443Y-68132209D01*
X128117965Y-68462124D01*
X128978261Y-68462875D01*
X129773358Y-68134347D01*
X130382209Y-67526557D01*
X130712124Y-66732035D01*
X130712875Y-65871739D01*
X130384347Y-65076642D01*
X129945970Y-64637500D01*
X143754495Y-64637500D01*
X143317791Y-65073443D01*
X142987876Y-65867965D01*
X142987125Y-66728261D01*
X143315653Y-67523358D01*
X143923443Y-68132209D01*
X144717965Y-68462124D01*
X145578261Y-68462875D01*
X146373358Y-68134347D01*
X146982209Y-67526557D01*
X147130264Y-67170000D01*
X156622358Y-67170000D01*
X156622358Y-68870000D01*
X156640662Y-68967276D01*
X156698152Y-69056619D01*
X156785872Y-69116556D01*
X156890000Y-69137642D01*
X158590000Y-69137642D01*
X158687276Y-69119338D01*
X158776619Y-69061848D01*
X158836556Y-68974128D01*
X158857642Y-68870000D01*
X158857642Y-68434900D01*
X159228234Y-68434900D01*
X159230389Y-68445735D01*
X159471549Y-68806656D01*
X159832470Y-69047816D01*
X160258205Y-69132500D01*
X160301795Y-69132500D01*
X160727530Y-69047816D01*
X161088451Y-68806656D01*
X161329611Y-68445735D01*
X161414295Y-68020000D01*
X161329611Y-67594265D01*
X161088451Y-67233344D01*
X160727530Y-66992184D01*
X160301795Y-66907500D01*
X160258205Y-66907500D01*
X159832470Y-66992184D01*
X159471549Y-67233344D01*
X159230389Y-67594265D01*
X159228234Y-67605100D01*
X158857642Y-67605100D01*
X158857642Y-67170000D01*
X158839338Y-67072724D01*
X158781848Y-66983381D01*
X158694128Y-66923444D01*
X158590000Y-66902358D01*
X156890000Y-66902358D01*
X156792724Y-66920662D01*
X156703381Y-66978152D01*
X156643444Y-67065872D01*
X156622358Y-67170000D01*
X147130264Y-67170000D01*
X147312124Y-66732035D01*
X147312875Y-65871739D01*
X146984347Y-65076642D01*
X146545970Y-64637500D01*
X170212500Y-64637500D01*
X170212500Y-131962500D01*
X103887500Y-131962500D01*
X103887500Y-128980000D01*
X113270005Y-128980000D01*
X113354689Y-129405735D01*
X113595849Y-129766656D01*
X113956770Y-130007816D01*
X114382505Y-130092500D01*
X114426095Y-130092500D01*
X114851830Y-130007816D01*
X115212751Y-129766656D01*
X115453911Y-129405735D01*
X115496629Y-129190973D01*
X115851987Y-129190973D01*
X115854395Y-129203098D01*
X116022735Y-129603204D01*
X116331375Y-129908433D01*
X116733327Y-130072317D01*
X116906800Y-130026247D01*
X116906800Y-129017500D01*
X116981800Y-129017500D01*
X116981800Y-130026247D01*
X117155273Y-130072317D01*
X117557225Y-129908433D01*
X117865865Y-129603204D01*
X118034205Y-129203098D01*
X118036613Y-129190973D01*
X156647687Y-129190973D01*
X156650095Y-129203098D01*
X156818435Y-129603204D01*
X157127075Y-129908433D01*
X157529027Y-130072317D01*
X157702500Y-130026247D01*
X157702500Y-129017500D01*
X157777500Y-129017500D01*
X157777500Y-130026247D01*
X157950973Y-130072317D01*
X158352925Y-129908433D01*
X158661565Y-129603204D01*
X158829905Y-129203098D01*
X158832313Y-129190973D01*
X158786203Y-129017500D01*
X157777500Y-129017500D01*
X157702500Y-129017500D01*
X156693797Y-129017500D01*
X156647687Y-129190973D01*
X118036613Y-129190973D01*
X117990503Y-129017500D01*
X116981800Y-129017500D01*
X116906800Y-129017500D01*
X115898097Y-129017500D01*
X115851987Y-129190973D01*
X115496629Y-129190973D01*
X115538595Y-128980000D01*
X159145705Y-128980000D01*
X159230389Y-129405735D01*
X159471549Y-129766656D01*
X159832470Y-130007816D01*
X160258205Y-130092500D01*
X160301795Y-130092500D01*
X160727530Y-130007816D01*
X161088451Y-129766656D01*
X161329611Y-129405735D01*
X161414295Y-128980000D01*
X161329611Y-128554265D01*
X161088451Y-128193344D01*
X160727530Y-127952184D01*
X160301795Y-127867500D01*
X160258205Y-127867500D01*
X159832470Y-127952184D01*
X159471549Y-128193344D01*
X159230389Y-128554265D01*
X159145705Y-128980000D01*
X115538595Y-128980000D01*
X115496630Y-128769027D01*
X115851987Y-128769027D01*
X115898097Y-128942500D01*
X116906800Y-128942500D01*
X116906800Y-127933753D01*
X116981800Y-127933753D01*
X116981800Y-128942500D01*
X117990503Y-128942500D01*
X118036613Y-128769027D01*
X156647687Y-128769027D01*
X156693797Y-128942500D01*
X157702500Y-128942500D01*
X157702500Y-127933753D01*
X157777500Y-127933753D01*
X157777500Y-128942500D01*
X158786203Y-128942500D01*
X158832313Y-128769027D01*
X158829905Y-128756902D01*
X158661565Y-128356796D01*
X158352925Y-128051567D01*
X157950973Y-127887683D01*
X157777500Y-127933753D01*
X157702500Y-127933753D01*
X157529027Y-127887683D01*
X157127075Y-128051567D01*
X156818435Y-128356796D01*
X156650095Y-128756902D01*
X156647687Y-128769027D01*
X118036613Y-128769027D01*
X118034205Y-128756902D01*
X117865865Y-128356796D01*
X117557225Y-128051567D01*
X117155273Y-127887683D01*
X116981800Y-127933753D01*
X116906800Y-127933753D01*
X116733327Y-127887683D01*
X116331375Y-128051567D01*
X116022735Y-128356796D01*
X115854395Y-128756902D01*
X115851987Y-128769027D01*
X115496630Y-128769027D01*
X115453911Y-128554265D01*
X115212751Y-128193344D01*
X114851830Y-127952184D01*
X114426095Y-127867500D01*
X114382505Y-127867500D01*
X113956770Y-127952184D01*
X113595849Y-128193344D01*
X113354689Y-128554265D01*
X113270005Y-128980000D01*
X103887500Y-128980000D01*
X103887500Y-126440000D01*
X113270005Y-126440000D01*
X113354689Y-126865735D01*
X113595849Y-127226656D01*
X113956770Y-127467816D01*
X114382505Y-127552500D01*
X114426095Y-127552500D01*
X114851830Y-127467816D01*
X115212751Y-127226656D01*
X115453911Y-126865735D01*
X115496629Y-126650973D01*
X115851987Y-126650973D01*
X115854395Y-126663098D01*
X116022735Y-127063204D01*
X116331375Y-127368433D01*
X116733327Y-127532317D01*
X116906800Y-127486247D01*
X116906800Y-126477500D01*
X116981800Y-126477500D01*
X116981800Y-127486247D01*
X117155273Y-127532317D01*
X117557225Y-127368433D01*
X117865865Y-127063204D01*
X118034205Y-126663098D01*
X118036613Y-126650973D01*
X117990503Y-126477500D01*
X116981800Y-126477500D01*
X116906800Y-126477500D01*
X115898097Y-126477500D01*
X115851987Y-126650973D01*
X115496629Y-126650973D01*
X115538595Y-126440000D01*
X156605705Y-126440000D01*
X156690389Y-126865735D01*
X156931549Y-127226656D01*
X157292470Y-127467816D01*
X157718205Y-127552500D01*
X157761795Y-127552500D01*
X158187530Y-127467816D01*
X158548451Y-127226656D01*
X158789611Y-126865735D01*
X158874295Y-126440000D01*
X159145705Y-126440000D01*
X159230389Y-126865735D01*
X159471549Y-127226656D01*
X159832470Y-127467816D01*
X160258205Y-127552500D01*
X160301795Y-127552500D01*
X160727530Y-127467816D01*
X161088451Y-127226656D01*
X161329611Y-126865735D01*
X161414295Y-126440000D01*
X161329611Y-126014265D01*
X161088451Y-125653344D01*
X160727530Y-125412184D01*
X160301795Y-125327500D01*
X160258205Y-125327500D01*
X159832470Y-125412184D01*
X159471549Y-125653344D01*
X159230389Y-126014265D01*
X159145705Y-126440000D01*
X158874295Y-126440000D01*
X158789611Y-126014265D01*
X158548451Y-125653344D01*
X158187530Y-125412184D01*
X157761795Y-125327500D01*
X157718205Y-125327500D01*
X157292470Y-125412184D01*
X156931549Y-125653344D01*
X156690389Y-126014265D01*
X156605705Y-126440000D01*
X115538595Y-126440000D01*
X115496630Y-126229027D01*
X115851987Y-126229027D01*
X115898097Y-126402500D01*
X116906800Y-126402500D01*
X116906800Y-125393753D01*
X116981800Y-125393753D01*
X116981800Y-126402500D01*
X117990503Y-126402500D01*
X118036613Y-126229027D01*
X118034205Y-126216902D01*
X117865865Y-125816796D01*
X117557225Y-125511567D01*
X117155273Y-125347683D01*
X116981800Y-125393753D01*
X116906800Y-125393753D01*
X116733327Y-125347683D01*
X116331375Y-125511567D01*
X116022735Y-125816796D01*
X115854395Y-126216902D01*
X115851987Y-126229027D01*
X115496630Y-126229027D01*
X115453911Y-126014265D01*
X115212751Y-125653344D01*
X114851830Y-125412184D01*
X114426095Y-125327500D01*
X114382505Y-125327500D01*
X113956770Y-125412184D01*
X113595849Y-125653344D01*
X113354689Y-126014265D01*
X113270005Y-126440000D01*
X103887500Y-126440000D01*
X103887500Y-123900000D01*
X113270005Y-123900000D01*
X113354689Y-124325735D01*
X113595849Y-124686656D01*
X113956770Y-124927816D01*
X114382505Y-125012500D01*
X114426095Y-125012500D01*
X114851830Y-124927816D01*
X115212751Y-124686656D01*
X115453911Y-124325735D01*
X115538595Y-123900000D01*
X115810005Y-123900000D01*
X115894689Y-124325735D01*
X116135849Y-124686656D01*
X116496770Y-124927816D01*
X116922505Y-125012500D01*
X116966095Y-125012500D01*
X117391830Y-124927816D01*
X117752751Y-124686656D01*
X117993911Y-124325735D01*
X118078595Y-123900000D01*
X156605705Y-123900000D01*
X156690389Y-124325735D01*
X156931549Y-124686656D01*
X157292470Y-124927816D01*
X157718205Y-125012500D01*
X157761795Y-125012500D01*
X158187530Y-124927816D01*
X158548451Y-124686656D01*
X158789611Y-124325735D01*
X158874295Y-123900000D01*
X159145705Y-123900000D01*
X159230389Y-124325735D01*
X159471549Y-124686656D01*
X159832470Y-124927816D01*
X160258205Y-125012500D01*
X160301795Y-125012500D01*
X160727530Y-124927816D01*
X161088451Y-124686656D01*
X161329611Y-124325735D01*
X161414295Y-123900000D01*
X161329611Y-123474265D01*
X161088451Y-123113344D01*
X160727530Y-122872184D01*
X160301795Y-122787500D01*
X160258205Y-122787500D01*
X159832470Y-122872184D01*
X159471549Y-123113344D01*
X159230389Y-123474265D01*
X159145705Y-123900000D01*
X158874295Y-123900000D01*
X158789611Y-123474265D01*
X158548451Y-123113344D01*
X158187530Y-122872184D01*
X157761795Y-122787500D01*
X157718205Y-122787500D01*
X157292470Y-122872184D01*
X156931549Y-123113344D01*
X156690389Y-123474265D01*
X156605705Y-123900000D01*
X118078595Y-123900000D01*
X117993911Y-123474265D01*
X117752751Y-123113344D01*
X117391830Y-122872184D01*
X116966095Y-122787500D01*
X116922505Y-122787500D01*
X116496770Y-122872184D01*
X116135849Y-123113344D01*
X115894689Y-123474265D01*
X115810005Y-123900000D01*
X115538595Y-123900000D01*
X115453911Y-123474265D01*
X115212751Y-123113344D01*
X114851830Y-122872184D01*
X114426095Y-122787500D01*
X114382505Y-122787500D01*
X113956770Y-122872184D01*
X113595849Y-123113344D01*
X113354689Y-123474265D01*
X113270005Y-123900000D01*
X103887500Y-123900000D01*
X103887500Y-121360000D01*
X113270005Y-121360000D01*
X113354689Y-121785735D01*
X113595849Y-122146656D01*
X113956770Y-122387816D01*
X114382505Y-122472500D01*
X114426095Y-122472500D01*
X114851830Y-122387816D01*
X115212751Y-122146656D01*
X115453911Y-121785735D01*
X115538595Y-121360000D01*
X115810005Y-121360000D01*
X115894689Y-121785735D01*
X116135849Y-122146656D01*
X116496770Y-122387816D01*
X116922505Y-122472500D01*
X116966095Y-122472500D01*
X117391830Y-122387816D01*
X117752751Y-122146656D01*
X117993911Y-121785735D01*
X118078595Y-121360000D01*
X156605705Y-121360000D01*
X156690389Y-121785735D01*
X156931549Y-122146656D01*
X157292470Y-122387816D01*
X157718205Y-122472500D01*
X157761795Y-122472500D01*
X158187530Y-122387816D01*
X158548451Y-122146656D01*
X158789611Y-121785735D01*
X158874295Y-121360000D01*
X159145705Y-121360000D01*
X159230389Y-121785735D01*
X159471549Y-122146656D01*
X159832470Y-122387816D01*
X160258205Y-122472500D01*
X160301795Y-122472500D01*
X160727530Y-122387816D01*
X161088451Y-122146656D01*
X161329611Y-121785735D01*
X161414295Y-121360000D01*
X161329611Y-120934265D01*
X161088451Y-120573344D01*
X160727530Y-120332184D01*
X160301795Y-120247500D01*
X160258205Y-120247500D01*
X159832470Y-120332184D01*
X159471549Y-120573344D01*
X159230389Y-120934265D01*
X159145705Y-121360000D01*
X158874295Y-121360000D01*
X158789611Y-120934265D01*
X158548451Y-120573344D01*
X158187530Y-120332184D01*
X157761795Y-120247500D01*
X157718205Y-120247500D01*
X157292470Y-120332184D01*
X156931549Y-120573344D01*
X156690389Y-120934265D01*
X156605705Y-121360000D01*
X118078595Y-121360000D01*
X117993911Y-120934265D01*
X117752751Y-120573344D01*
X117391830Y-120332184D01*
X116966095Y-120247500D01*
X116922505Y-120247500D01*
X116496770Y-120332184D01*
X116135849Y-120573344D01*
X115894689Y-120934265D01*
X115810005Y-121360000D01*
X115538595Y-121360000D01*
X115453911Y-120934265D01*
X115212751Y-120573344D01*
X114851830Y-120332184D01*
X114426095Y-120247500D01*
X114382505Y-120247500D01*
X113956770Y-120332184D01*
X113595849Y-120573344D01*
X113354689Y-120934265D01*
X113270005Y-121360000D01*
X103887500Y-121360000D01*
X103887500Y-118820000D01*
X113270005Y-118820000D01*
X113354689Y-119245735D01*
X113595849Y-119606656D01*
X113956770Y-119847816D01*
X114382505Y-119932500D01*
X114426095Y-119932500D01*
X114851830Y-119847816D01*
X115212751Y-119606656D01*
X115453911Y-119245735D01*
X115538595Y-118820000D01*
X115810005Y-118820000D01*
X115894689Y-119245735D01*
X116135849Y-119606656D01*
X116496770Y-119847816D01*
X116922505Y-119932500D01*
X116966095Y-119932500D01*
X117391830Y-119847816D01*
X117752751Y-119606656D01*
X117993911Y-119245735D01*
X118078595Y-118820000D01*
X156605705Y-118820000D01*
X156690389Y-119245735D01*
X156931549Y-119606656D01*
X157292470Y-119847816D01*
X157718205Y-119932500D01*
X157761795Y-119932500D01*
X158187530Y-119847816D01*
X158548451Y-119606656D01*
X158789611Y-119245735D01*
X158874295Y-118820000D01*
X159145705Y-118820000D01*
X159230389Y-119245735D01*
X159471549Y-119606656D01*
X159832470Y-119847816D01*
X160258205Y-119932500D01*
X160301795Y-119932500D01*
X160727530Y-119847816D01*
X161088451Y-119606656D01*
X161329611Y-119245735D01*
X161414295Y-118820000D01*
X161329611Y-118394265D01*
X161088451Y-118033344D01*
X160727530Y-117792184D01*
X160301795Y-117707500D01*
X160258205Y-117707500D01*
X159832470Y-117792184D01*
X159471549Y-118033344D01*
X159230389Y-118394265D01*
X159145705Y-118820000D01*
X158874295Y-118820000D01*
X158789611Y-118394265D01*
X158548451Y-118033344D01*
X158187530Y-117792184D01*
X157761795Y-117707500D01*
X157718205Y-117707500D01*
X157292470Y-117792184D01*
X156931549Y-118033344D01*
X156690389Y-118394265D01*
X156605705Y-118820000D01*
X118078595Y-118820000D01*
X117993911Y-118394265D01*
X117752751Y-118033344D01*
X117391830Y-117792184D01*
X116966095Y-117707500D01*
X116922505Y-117707500D01*
X116496770Y-117792184D01*
X116135849Y-118033344D01*
X115894689Y-118394265D01*
X115810005Y-118820000D01*
X115538595Y-118820000D01*
X115453911Y-118394265D01*
X115212751Y-118033344D01*
X114851830Y-117792184D01*
X114426095Y-117707500D01*
X114382505Y-117707500D01*
X113956770Y-117792184D01*
X113595849Y-118033344D01*
X113354689Y-118394265D01*
X113270005Y-118820000D01*
X103887500Y-118820000D01*
X103887500Y-116280000D01*
X113270005Y-116280000D01*
X113354689Y-116705735D01*
X113595849Y-117066656D01*
X113956770Y-117307816D01*
X114382505Y-117392500D01*
X114426095Y-117392500D01*
X114851830Y-117307816D01*
X115212751Y-117066656D01*
X115453911Y-116705735D01*
X115538595Y-116280000D01*
X115810005Y-116280000D01*
X115894689Y-116705735D01*
X116135849Y-117066656D01*
X116496770Y-117307816D01*
X116922505Y-117392500D01*
X116966095Y-117392500D01*
X117391830Y-117307816D01*
X117752751Y-117066656D01*
X117993911Y-116705735D01*
X118036629Y-116490973D01*
X156647687Y-116490973D01*
X156650095Y-116503098D01*
X156818435Y-116903204D01*
X157127075Y-117208433D01*
X157529027Y-117372317D01*
X157702500Y-117326247D01*
X157702500Y-116317500D01*
X157777500Y-116317500D01*
X157777500Y-117326247D01*
X157950973Y-117372317D01*
X158352925Y-117208433D01*
X158661565Y-116903204D01*
X158829905Y-116503098D01*
X158832313Y-116490973D01*
X158786203Y-116317500D01*
X157777500Y-116317500D01*
X157702500Y-116317500D01*
X156693797Y-116317500D01*
X156647687Y-116490973D01*
X118036629Y-116490973D01*
X118078595Y-116280000D01*
X118036630Y-116069027D01*
X156647687Y-116069027D01*
X156693797Y-116242500D01*
X157702500Y-116242500D01*
X157702500Y-115233753D01*
X157777500Y-115233753D01*
X157777500Y-116242500D01*
X158786203Y-116242500D01*
X158832313Y-116069027D01*
X158829905Y-116056902D01*
X158661565Y-115656796D01*
X158352925Y-115351567D01*
X157950973Y-115187683D01*
X157777500Y-115233753D01*
X157702500Y-115233753D01*
X157529027Y-115187683D01*
X157127075Y-115351567D01*
X156818435Y-115656796D01*
X156650095Y-116056902D01*
X156647687Y-116069027D01*
X118036630Y-116069027D01*
X117993911Y-115854265D01*
X117752751Y-115493344D01*
X117391830Y-115252184D01*
X116966095Y-115167500D01*
X116922505Y-115167500D01*
X116496770Y-115252184D01*
X116135849Y-115493344D01*
X115894689Y-115854265D01*
X115810005Y-116280000D01*
X115538595Y-116280000D01*
X115453911Y-115854265D01*
X115212751Y-115493344D01*
X114851830Y-115252184D01*
X114426095Y-115167500D01*
X114382505Y-115167500D01*
X113956770Y-115252184D01*
X113595849Y-115493344D01*
X113354689Y-115854265D01*
X113270005Y-116280000D01*
X103887500Y-116280000D01*
X103887500Y-113740000D01*
X113270005Y-113740000D01*
X113354689Y-114165735D01*
X113595849Y-114526656D01*
X113956770Y-114767816D01*
X114382505Y-114852500D01*
X114426095Y-114852500D01*
X114851830Y-114767816D01*
X115212751Y-114526656D01*
X115453911Y-114165735D01*
X115538595Y-113740000D01*
X115810005Y-113740000D01*
X115894689Y-114165735D01*
X116135849Y-114526656D01*
X116496770Y-114767816D01*
X116922505Y-114852500D01*
X116966095Y-114852500D01*
X117391830Y-114767816D01*
X117752751Y-114526656D01*
X117993911Y-114165735D01*
X118078595Y-113740000D01*
X117993911Y-113314265D01*
X117752751Y-112953344D01*
X117415891Y-112728261D01*
X126387125Y-112728261D01*
X126715653Y-113523358D01*
X127323443Y-114132209D01*
X128117965Y-114462124D01*
X128978261Y-114462875D01*
X129773358Y-114134347D01*
X130382209Y-113526557D01*
X130712124Y-112732035D01*
X130712127Y-112728261D01*
X142987125Y-112728261D01*
X143315653Y-113523358D01*
X143923443Y-114132209D01*
X144717965Y-114462124D01*
X145578261Y-114462875D01*
X146373358Y-114134347D01*
X146768393Y-113740000D01*
X156605705Y-113740000D01*
X156690389Y-114165735D01*
X156931549Y-114526656D01*
X157292470Y-114767816D01*
X157718205Y-114852500D01*
X157761795Y-114852500D01*
X158187530Y-114767816D01*
X158248250Y-114727244D01*
X159288421Y-115767415D01*
X159230389Y-115854265D01*
X159145705Y-116280000D01*
X159230389Y-116705735D01*
X159471549Y-117066656D01*
X159832470Y-117307816D01*
X160258205Y-117392500D01*
X160301795Y-117392500D01*
X160727530Y-117307816D01*
X161088451Y-117066656D01*
X161329611Y-116705735D01*
X161414295Y-116280000D01*
X161329611Y-115854265D01*
X161088451Y-115493344D01*
X160727530Y-115252184D01*
X160301795Y-115167500D01*
X160258205Y-115167500D01*
X159832470Y-115252184D01*
X159771750Y-115292756D01*
X158731579Y-114252585D01*
X158789611Y-114165735D01*
X158874295Y-113740000D01*
X159145705Y-113740000D01*
X159230389Y-114165735D01*
X159471549Y-114526656D01*
X159832470Y-114767816D01*
X160258205Y-114852500D01*
X160301795Y-114852500D01*
X160727530Y-114767816D01*
X161088451Y-114526656D01*
X161329611Y-114165735D01*
X161414295Y-113740000D01*
X161329611Y-113314265D01*
X161088451Y-112953344D01*
X160727530Y-112712184D01*
X160301795Y-112627500D01*
X160258205Y-112627500D01*
X159832470Y-112712184D01*
X159471549Y-112953344D01*
X159230389Y-113314265D01*
X159145705Y-113740000D01*
X158874295Y-113740000D01*
X158789611Y-113314265D01*
X158548451Y-112953344D01*
X158187530Y-112712184D01*
X157761795Y-112627500D01*
X157718205Y-112627500D01*
X157292470Y-112712184D01*
X156931549Y-112953344D01*
X156690389Y-113314265D01*
X156605705Y-113740000D01*
X146768393Y-113740000D01*
X146982209Y-113526557D01*
X147312124Y-112732035D01*
X147312875Y-111871739D01*
X147035318Y-111200000D01*
X156605705Y-111200000D01*
X156690389Y-111625735D01*
X156931549Y-111986656D01*
X157292470Y-112227816D01*
X157718205Y-112312500D01*
X157761795Y-112312500D01*
X158187530Y-112227816D01*
X158548451Y-111986656D01*
X158789611Y-111625735D01*
X158874295Y-111200000D01*
X159145705Y-111200000D01*
X159230389Y-111625735D01*
X159471549Y-111986656D01*
X159832470Y-112227816D01*
X160258205Y-112312500D01*
X160301795Y-112312500D01*
X160727530Y-112227816D01*
X161088451Y-111986656D01*
X161329611Y-111625735D01*
X161414295Y-111200000D01*
X161329611Y-110774265D01*
X161088451Y-110413344D01*
X160727530Y-110172184D01*
X160301795Y-110087500D01*
X160258205Y-110087500D01*
X159832470Y-110172184D01*
X159471549Y-110413344D01*
X159230389Y-110774265D01*
X159145705Y-111200000D01*
X158874295Y-111200000D01*
X158789611Y-110774265D01*
X158548451Y-110413344D01*
X158187530Y-110172184D01*
X157761795Y-110087500D01*
X157718205Y-110087500D01*
X157292470Y-110172184D01*
X156931549Y-110413344D01*
X156690389Y-110774265D01*
X156605705Y-111200000D01*
X147035318Y-111200000D01*
X146984347Y-111076642D01*
X146376557Y-110467791D01*
X145582035Y-110137876D01*
X144721739Y-110137125D01*
X143926642Y-110465653D01*
X143317791Y-111073443D01*
X142987876Y-111867965D01*
X142987125Y-112728261D01*
X130712127Y-112728261D01*
X130712875Y-111871739D01*
X130384347Y-111076642D01*
X129776557Y-110467791D01*
X128982035Y-110137876D01*
X128121739Y-110137125D01*
X127326642Y-110465653D01*
X126717791Y-111073443D01*
X126387876Y-111867965D01*
X126387125Y-112728261D01*
X117415891Y-112728261D01*
X117391830Y-112712184D01*
X116966095Y-112627500D01*
X116922505Y-112627500D01*
X116496770Y-112712184D01*
X116135849Y-112953344D01*
X115894689Y-113314265D01*
X115810005Y-113740000D01*
X115538595Y-113740000D01*
X115453911Y-113314265D01*
X115212751Y-112953344D01*
X114851830Y-112712184D01*
X114426095Y-112627500D01*
X114382505Y-112627500D01*
X113956770Y-112712184D01*
X113595849Y-112953344D01*
X113354689Y-113314265D01*
X113270005Y-113740000D01*
X103887500Y-113740000D01*
X103887500Y-111410973D01*
X113311987Y-111410973D01*
X113314395Y-111423098D01*
X113482735Y-111823204D01*
X113791375Y-112128433D01*
X114193327Y-112292317D01*
X114366800Y-112246247D01*
X114366800Y-111237500D01*
X114441800Y-111237500D01*
X114441800Y-112246247D01*
X114615273Y-112292317D01*
X115017225Y-112128433D01*
X115325865Y-111823204D01*
X115494205Y-111423098D01*
X115496613Y-111410973D01*
X115450503Y-111237500D01*
X114441800Y-111237500D01*
X114366800Y-111237500D01*
X113358097Y-111237500D01*
X113311987Y-111410973D01*
X103887500Y-111410973D01*
X103887500Y-111200000D01*
X115810005Y-111200000D01*
X115894689Y-111625735D01*
X116135849Y-111986656D01*
X116496770Y-112227816D01*
X116922505Y-112312500D01*
X116966095Y-112312500D01*
X117391830Y-112227816D01*
X117752751Y-111986656D01*
X117993911Y-111625735D01*
X118078595Y-111200000D01*
X117993911Y-110774265D01*
X117752751Y-110413344D01*
X117391830Y-110172184D01*
X116966095Y-110087500D01*
X116922505Y-110087500D01*
X116496770Y-110172184D01*
X116135849Y-110413344D01*
X115894689Y-110774265D01*
X115810005Y-111200000D01*
X103887500Y-111200000D01*
X103887500Y-110989027D01*
X113311987Y-110989027D01*
X113358097Y-111162500D01*
X114366800Y-111162500D01*
X114366800Y-110153753D01*
X114441800Y-110153753D01*
X114441800Y-111162500D01*
X115450503Y-111162500D01*
X115496613Y-110989027D01*
X115494205Y-110976902D01*
X115325865Y-110576796D01*
X115017225Y-110271567D01*
X114615273Y-110107683D01*
X114441800Y-110153753D01*
X114366800Y-110153753D01*
X114193327Y-110107683D01*
X113791375Y-110271567D01*
X113482735Y-110576796D01*
X113314395Y-110976902D01*
X113311987Y-110989027D01*
X103887500Y-110989027D01*
X103887500Y-108660000D01*
X113270005Y-108660000D01*
X113354689Y-109085735D01*
X113595849Y-109446656D01*
X113956770Y-109687816D01*
X114382505Y-109772500D01*
X114426095Y-109772500D01*
X114851830Y-109687816D01*
X115212751Y-109446656D01*
X115453911Y-109085735D01*
X115538595Y-108660000D01*
X115810005Y-108660000D01*
X115894689Y-109085735D01*
X116135849Y-109446656D01*
X116496770Y-109687816D01*
X116922505Y-109772500D01*
X116966095Y-109772500D01*
X117391830Y-109687816D01*
X117752751Y-109446656D01*
X117993911Y-109085735D01*
X118036629Y-108870973D01*
X156647687Y-108870973D01*
X156650095Y-108883098D01*
X156818435Y-109283204D01*
X157127075Y-109588433D01*
X157529027Y-109752317D01*
X157702500Y-109706247D01*
X157702500Y-108697500D01*
X157777500Y-108697500D01*
X157777500Y-109706247D01*
X157950973Y-109752317D01*
X158352925Y-109588433D01*
X158661565Y-109283204D01*
X158829905Y-108883098D01*
X158832313Y-108870973D01*
X158786203Y-108697500D01*
X157777500Y-108697500D01*
X157702500Y-108697500D01*
X156693797Y-108697500D01*
X156647687Y-108870973D01*
X118036629Y-108870973D01*
X118078595Y-108660000D01*
X159145705Y-108660000D01*
X159230389Y-109085735D01*
X159471549Y-109446656D01*
X159832470Y-109687816D01*
X160258205Y-109772500D01*
X160301795Y-109772500D01*
X160727530Y-109687816D01*
X161088451Y-109446656D01*
X161329611Y-109085735D01*
X161414295Y-108660000D01*
X161329611Y-108234265D01*
X161088451Y-107873344D01*
X160727530Y-107632184D01*
X160301795Y-107547500D01*
X160258205Y-107547500D01*
X159832470Y-107632184D01*
X159471549Y-107873344D01*
X159230389Y-108234265D01*
X159145705Y-108660000D01*
X118078595Y-108660000D01*
X118036630Y-108449027D01*
X156647687Y-108449027D01*
X156693797Y-108622500D01*
X157702500Y-108622500D01*
X157702500Y-107613753D01*
X157777500Y-107613753D01*
X157777500Y-108622500D01*
X158786203Y-108622500D01*
X158832313Y-108449027D01*
X158829905Y-108436902D01*
X158661565Y-108036796D01*
X158352925Y-107731567D01*
X157950973Y-107567683D01*
X157777500Y-107613753D01*
X157702500Y-107613753D01*
X157529027Y-107567683D01*
X157127075Y-107731567D01*
X156818435Y-108036796D01*
X156650095Y-108436902D01*
X156647687Y-108449027D01*
X118036630Y-108449027D01*
X117993911Y-108234265D01*
X117752751Y-107873344D01*
X117391830Y-107632184D01*
X116966095Y-107547500D01*
X116922505Y-107547500D01*
X116496770Y-107632184D01*
X116135849Y-107873344D01*
X115894689Y-108234265D01*
X115810005Y-108660000D01*
X115538595Y-108660000D01*
X115453911Y-108234265D01*
X115212751Y-107873344D01*
X114851830Y-107632184D01*
X114426095Y-107547500D01*
X114382505Y-107547500D01*
X113956770Y-107632184D01*
X113595849Y-107873344D01*
X113354689Y-108234265D01*
X113270005Y-108660000D01*
X103887500Y-108660000D01*
X103887500Y-106120000D01*
X113270005Y-106120000D01*
X113354689Y-106545735D01*
X113595849Y-106906656D01*
X113956770Y-107147816D01*
X114382505Y-107232500D01*
X114426095Y-107232500D01*
X114851830Y-107147816D01*
X115212751Y-106906656D01*
X115453911Y-106545735D01*
X115538595Y-106120000D01*
X115810005Y-106120000D01*
X115894689Y-106545735D01*
X116135849Y-106906656D01*
X116496770Y-107147816D01*
X116922505Y-107232500D01*
X116966095Y-107232500D01*
X117391830Y-107147816D01*
X117752751Y-106906656D01*
X117993911Y-106545735D01*
X118078595Y-106120000D01*
X156605705Y-106120000D01*
X156690389Y-106545735D01*
X156931549Y-106906656D01*
X157292470Y-107147816D01*
X157718205Y-107232500D01*
X157761795Y-107232500D01*
X158187530Y-107147816D01*
X158548451Y-106906656D01*
X158789611Y-106545735D01*
X158874295Y-106120000D01*
X159145705Y-106120000D01*
X159230389Y-106545735D01*
X159471549Y-106906656D01*
X159832470Y-107147816D01*
X160258205Y-107232500D01*
X160301795Y-107232500D01*
X160727530Y-107147816D01*
X161088451Y-106906656D01*
X161329611Y-106545735D01*
X161414295Y-106120000D01*
X161329611Y-105694265D01*
X161088451Y-105333344D01*
X160727530Y-105092184D01*
X160301795Y-105007500D01*
X160258205Y-105007500D01*
X159832470Y-105092184D01*
X159471549Y-105333344D01*
X159230389Y-105694265D01*
X159145705Y-106120000D01*
X158874295Y-106120000D01*
X158789611Y-105694265D01*
X158548451Y-105333344D01*
X158187530Y-105092184D01*
X157761795Y-105007500D01*
X157718205Y-105007500D01*
X157292470Y-105092184D01*
X156931549Y-105333344D01*
X156690389Y-105694265D01*
X156605705Y-106120000D01*
X118078595Y-106120000D01*
X117993911Y-105694265D01*
X117752751Y-105333344D01*
X117391830Y-105092184D01*
X116966095Y-105007500D01*
X116922505Y-105007500D01*
X116496770Y-105092184D01*
X116135849Y-105333344D01*
X115894689Y-105694265D01*
X115810005Y-106120000D01*
X115538595Y-106120000D01*
X115453911Y-105694265D01*
X115212751Y-105333344D01*
X114851830Y-105092184D01*
X114426095Y-105007500D01*
X114382505Y-105007500D01*
X113956770Y-105092184D01*
X113595849Y-105333344D01*
X113354689Y-105694265D01*
X113270005Y-106120000D01*
X103887500Y-106120000D01*
X103887500Y-103580000D01*
X113270005Y-103580000D01*
X113354689Y-104005735D01*
X113595849Y-104366656D01*
X113956770Y-104607816D01*
X114382505Y-104692500D01*
X114426095Y-104692500D01*
X114851830Y-104607816D01*
X115212751Y-104366656D01*
X115453911Y-104005735D01*
X115538595Y-103580000D01*
X115810005Y-103580000D01*
X115894689Y-104005735D01*
X116135849Y-104366656D01*
X116496770Y-104607816D01*
X116922505Y-104692500D01*
X116966095Y-104692500D01*
X117391830Y-104607816D01*
X117752751Y-104366656D01*
X117993911Y-104005735D01*
X118078595Y-103580000D01*
X156605705Y-103580000D01*
X156690389Y-104005735D01*
X156931549Y-104366656D01*
X157292470Y-104607816D01*
X157718205Y-104692500D01*
X157761795Y-104692500D01*
X158187530Y-104607816D01*
X158548451Y-104366656D01*
X158789611Y-104005735D01*
X158874295Y-103580000D01*
X159145705Y-103580000D01*
X159230389Y-104005735D01*
X159471549Y-104366656D01*
X159832470Y-104607816D01*
X160258205Y-104692500D01*
X160301795Y-104692500D01*
X160727530Y-104607816D01*
X161088451Y-104366656D01*
X161329611Y-104005735D01*
X161414295Y-103580000D01*
X161329611Y-103154265D01*
X161088451Y-102793344D01*
X160727530Y-102552184D01*
X160301795Y-102467500D01*
X160258205Y-102467500D01*
X159832470Y-102552184D01*
X159471549Y-102793344D01*
X159230389Y-103154265D01*
X159145705Y-103580000D01*
X158874295Y-103580000D01*
X158789611Y-103154265D01*
X158548451Y-102793344D01*
X158187530Y-102552184D01*
X157761795Y-102467500D01*
X157718205Y-102467500D01*
X157292470Y-102552184D01*
X156931549Y-102793344D01*
X156690389Y-103154265D01*
X156605705Y-103580000D01*
X118078595Y-103580000D01*
X117993911Y-103154265D01*
X117752751Y-102793344D01*
X117391830Y-102552184D01*
X116966095Y-102467500D01*
X116922505Y-102467500D01*
X116496770Y-102552184D01*
X116135849Y-102793344D01*
X115894689Y-103154265D01*
X115810005Y-103580000D01*
X115538595Y-103580000D01*
X115453911Y-103154265D01*
X115212751Y-102793344D01*
X114851830Y-102552184D01*
X114426095Y-102467500D01*
X114382505Y-102467500D01*
X113956770Y-102552184D01*
X113595849Y-102793344D01*
X113354689Y-103154265D01*
X113270005Y-103580000D01*
X103887500Y-103580000D01*
X103887500Y-101040000D01*
X113270005Y-101040000D01*
X113354689Y-101465735D01*
X113595849Y-101826656D01*
X113956770Y-102067816D01*
X114382505Y-102152500D01*
X114426095Y-102152500D01*
X114851830Y-102067816D01*
X115212751Y-101826656D01*
X115453911Y-101465735D01*
X115538595Y-101040000D01*
X115810005Y-101040000D01*
X115894689Y-101465735D01*
X116135849Y-101826656D01*
X116496770Y-102067816D01*
X116922505Y-102152500D01*
X116966095Y-102152500D01*
X117391830Y-102067816D01*
X117752751Y-101826656D01*
X117993911Y-101465735D01*
X118078595Y-101040000D01*
X156605705Y-101040000D01*
X156690389Y-101465735D01*
X156931549Y-101826656D01*
X157292470Y-102067816D01*
X157718205Y-102152500D01*
X157761795Y-102152500D01*
X158187530Y-102067816D01*
X158548451Y-101826656D01*
X158789611Y-101465735D01*
X158874295Y-101040000D01*
X159145705Y-101040000D01*
X159230389Y-101465735D01*
X159471549Y-101826656D01*
X159832470Y-102067816D01*
X160258205Y-102152500D01*
X160301795Y-102152500D01*
X160727530Y-102067816D01*
X161088451Y-101826656D01*
X161329611Y-101465735D01*
X161414295Y-101040000D01*
X161329611Y-100614265D01*
X161088451Y-100253344D01*
X160727530Y-100012184D01*
X160301795Y-99927500D01*
X160258205Y-99927500D01*
X159832470Y-100012184D01*
X159471549Y-100253344D01*
X159230389Y-100614265D01*
X159145705Y-101040000D01*
X158874295Y-101040000D01*
X158789611Y-100614265D01*
X158548451Y-100253344D01*
X158187530Y-100012184D01*
X157761795Y-99927500D01*
X157718205Y-99927500D01*
X157292470Y-100012184D01*
X156931549Y-100253344D01*
X156690389Y-100614265D01*
X156605705Y-101040000D01*
X118078595Y-101040000D01*
X117993911Y-100614265D01*
X117752751Y-100253344D01*
X117391830Y-100012184D01*
X116966095Y-99927500D01*
X116922505Y-99927500D01*
X116496770Y-100012184D01*
X116135849Y-100253344D01*
X115894689Y-100614265D01*
X115810005Y-101040000D01*
X115538595Y-101040000D01*
X115453911Y-100614265D01*
X115212751Y-100253344D01*
X114851830Y-100012184D01*
X114426095Y-99927500D01*
X114382505Y-99927500D01*
X113956770Y-100012184D01*
X113595849Y-100253344D01*
X113354689Y-100614265D01*
X113270005Y-101040000D01*
X103887500Y-101040000D01*
X103887500Y-98500000D01*
X113270005Y-98500000D01*
X113354689Y-98925735D01*
X113595849Y-99286656D01*
X113956770Y-99527816D01*
X114382505Y-99612500D01*
X114426095Y-99612500D01*
X114851830Y-99527816D01*
X115212751Y-99286656D01*
X115453911Y-98925735D01*
X115538595Y-98500000D01*
X115810005Y-98500000D01*
X115894689Y-98925735D01*
X116135849Y-99286656D01*
X116496770Y-99527816D01*
X116922505Y-99612500D01*
X116966095Y-99612500D01*
X117391830Y-99527816D01*
X117752751Y-99286656D01*
X117993911Y-98925735D01*
X118078595Y-98500000D01*
X156605705Y-98500000D01*
X156690389Y-98925735D01*
X156931549Y-99286656D01*
X157292470Y-99527816D01*
X157718205Y-99612500D01*
X157761795Y-99612500D01*
X158187530Y-99527816D01*
X158548451Y-99286656D01*
X158789611Y-98925735D01*
X158874295Y-98500000D01*
X159145705Y-98500000D01*
X159230389Y-98925735D01*
X159471549Y-99286656D01*
X159832470Y-99527816D01*
X160258205Y-99612500D01*
X160301795Y-99612500D01*
X160727530Y-99527816D01*
X161088451Y-99286656D01*
X161329611Y-98925735D01*
X161414295Y-98500000D01*
X161329611Y-98074265D01*
X161088451Y-97713344D01*
X160727530Y-97472184D01*
X160301795Y-97387500D01*
X160258205Y-97387500D01*
X159832470Y-97472184D01*
X159471549Y-97713344D01*
X159230389Y-98074265D01*
X159145705Y-98500000D01*
X158874295Y-98500000D01*
X158789611Y-98074265D01*
X158548451Y-97713344D01*
X158187530Y-97472184D01*
X157761795Y-97387500D01*
X157718205Y-97387500D01*
X157292470Y-97472184D01*
X156931549Y-97713344D01*
X156690389Y-98074265D01*
X156605705Y-98500000D01*
X118078595Y-98500000D01*
X117993911Y-98074265D01*
X117752751Y-97713344D01*
X117391830Y-97472184D01*
X116966095Y-97387500D01*
X116922505Y-97387500D01*
X116496770Y-97472184D01*
X116135849Y-97713344D01*
X115894689Y-98074265D01*
X115810005Y-98500000D01*
X115538595Y-98500000D01*
X115453911Y-98074265D01*
X115212751Y-97713344D01*
X114851830Y-97472184D01*
X114426095Y-97387500D01*
X114382505Y-97387500D01*
X113956770Y-97472184D01*
X113595849Y-97713344D01*
X113354689Y-98074265D01*
X113270005Y-98500000D01*
X103887500Y-98500000D01*
X103887500Y-95960000D01*
X113270005Y-95960000D01*
X113354689Y-96385735D01*
X113595849Y-96746656D01*
X113956770Y-96987816D01*
X114382505Y-97072500D01*
X114426095Y-97072500D01*
X114851830Y-96987816D01*
X115212751Y-96746656D01*
X115453911Y-96385735D01*
X115538595Y-95960000D01*
X115810005Y-95960000D01*
X115894689Y-96385735D01*
X116135849Y-96746656D01*
X116496770Y-96987816D01*
X116922505Y-97072500D01*
X116966095Y-97072500D01*
X117391830Y-96987816D01*
X117752751Y-96746656D01*
X117993911Y-96385735D01*
X118036629Y-96170973D01*
X156647687Y-96170973D01*
X156650095Y-96183098D01*
X156818435Y-96583204D01*
X157127075Y-96888433D01*
X157529027Y-97052317D01*
X157702500Y-97006247D01*
X157702500Y-95997500D01*
X157777500Y-95997500D01*
X157777500Y-97006247D01*
X157950973Y-97052317D01*
X158352925Y-96888433D01*
X158661565Y-96583204D01*
X158829905Y-96183098D01*
X158832313Y-96170973D01*
X158786203Y-95997500D01*
X157777500Y-95997500D01*
X157702500Y-95997500D01*
X156693797Y-95997500D01*
X156647687Y-96170973D01*
X118036629Y-96170973D01*
X118078595Y-95960000D01*
X159145705Y-95960000D01*
X159230389Y-96385735D01*
X159471549Y-96746656D01*
X159832470Y-96987816D01*
X160258205Y-97072500D01*
X160301795Y-97072500D01*
X160727530Y-96987816D01*
X161088451Y-96746656D01*
X161329611Y-96385735D01*
X161414295Y-95960000D01*
X161329611Y-95534265D01*
X161088451Y-95173344D01*
X160727530Y-94932184D01*
X160301795Y-94847500D01*
X160258205Y-94847500D01*
X159832470Y-94932184D01*
X159471549Y-95173344D01*
X159230389Y-95534265D01*
X159145705Y-95960000D01*
X118078595Y-95960000D01*
X118036630Y-95749027D01*
X156647687Y-95749027D01*
X156693797Y-95922500D01*
X157702500Y-95922500D01*
X157702500Y-94913753D01*
X157777500Y-94913753D01*
X157777500Y-95922500D01*
X158786203Y-95922500D01*
X158832313Y-95749027D01*
X158829905Y-95736902D01*
X158661565Y-95336796D01*
X158352925Y-95031567D01*
X157950973Y-94867683D01*
X157777500Y-94913753D01*
X157702500Y-94913753D01*
X157529027Y-94867683D01*
X157127075Y-95031567D01*
X156818435Y-95336796D01*
X156650095Y-95736902D01*
X156647687Y-95749027D01*
X118036630Y-95749027D01*
X117993911Y-95534265D01*
X117752751Y-95173344D01*
X117391830Y-94932184D01*
X116966095Y-94847500D01*
X116922505Y-94847500D01*
X116496770Y-94932184D01*
X116135849Y-95173344D01*
X115894689Y-95534265D01*
X115810005Y-95960000D01*
X115538595Y-95960000D01*
X115453911Y-95534265D01*
X115212751Y-95173344D01*
X114851830Y-94932184D01*
X114426095Y-94847500D01*
X114382505Y-94847500D01*
X113956770Y-94932184D01*
X113595849Y-95173344D01*
X113354689Y-95534265D01*
X113270005Y-95960000D01*
X103887500Y-95960000D01*
X103887500Y-93420000D01*
X113270005Y-93420000D01*
X113354689Y-93845735D01*
X113595849Y-94206656D01*
X113956770Y-94447816D01*
X114382505Y-94532500D01*
X114426095Y-94532500D01*
X114851830Y-94447816D01*
X115212751Y-94206656D01*
X115453911Y-93845735D01*
X115538595Y-93420000D01*
X115810005Y-93420000D01*
X115894689Y-93845735D01*
X116135849Y-94206656D01*
X116496770Y-94447816D01*
X116922505Y-94532500D01*
X116966095Y-94532500D01*
X117391830Y-94447816D01*
X117752751Y-94206656D01*
X117993911Y-93845735D01*
X118078595Y-93420000D01*
X156605705Y-93420000D01*
X156690389Y-93845735D01*
X156931549Y-94206656D01*
X157292470Y-94447816D01*
X157718205Y-94532500D01*
X157761795Y-94532500D01*
X158187530Y-94447816D01*
X158548451Y-94206656D01*
X158789611Y-93845735D01*
X158874295Y-93420000D01*
X159145705Y-93420000D01*
X159230389Y-93845735D01*
X159471549Y-94206656D01*
X159832470Y-94447816D01*
X160258205Y-94532500D01*
X160301795Y-94532500D01*
X160727530Y-94447816D01*
X161088451Y-94206656D01*
X161329611Y-93845735D01*
X161414295Y-93420000D01*
X161329611Y-92994265D01*
X161088451Y-92633344D01*
X160727530Y-92392184D01*
X160301795Y-92307500D01*
X160258205Y-92307500D01*
X159832470Y-92392184D01*
X159471549Y-92633344D01*
X159230389Y-92994265D01*
X159145705Y-93420000D01*
X158874295Y-93420000D01*
X158789611Y-92994265D01*
X158548451Y-92633344D01*
X158187530Y-92392184D01*
X157761795Y-92307500D01*
X157718205Y-92307500D01*
X157292470Y-92392184D01*
X156931549Y-92633344D01*
X156690389Y-92994265D01*
X156605705Y-93420000D01*
X118078595Y-93420000D01*
X117993911Y-92994265D01*
X117752751Y-92633344D01*
X117391830Y-92392184D01*
X116966095Y-92307500D01*
X116922505Y-92307500D01*
X116496770Y-92392184D01*
X116135849Y-92633344D01*
X115894689Y-92994265D01*
X115810005Y-93420000D01*
X115538595Y-93420000D01*
X115453911Y-92994265D01*
X115212751Y-92633344D01*
X114851830Y-92392184D01*
X114426095Y-92307500D01*
X114382505Y-92307500D01*
X113956770Y-92392184D01*
X113595849Y-92633344D01*
X113354689Y-92994265D01*
X113270005Y-93420000D01*
X103887500Y-93420000D01*
X103887500Y-90880000D01*
X113270005Y-90880000D01*
X113354689Y-91305735D01*
X113595849Y-91666656D01*
X113956770Y-91907816D01*
X114382505Y-91992500D01*
X114426095Y-91992500D01*
X114851830Y-91907816D01*
X115212751Y-91666656D01*
X115453911Y-91305735D01*
X115538595Y-90880000D01*
X115810005Y-90880000D01*
X115894689Y-91305735D01*
X116135849Y-91666656D01*
X116496770Y-91907816D01*
X116922505Y-91992500D01*
X116966095Y-91992500D01*
X117391830Y-91907816D01*
X117752751Y-91666656D01*
X117993911Y-91305735D01*
X118078595Y-90880000D01*
X156605705Y-90880000D01*
X156690389Y-91305735D01*
X156931549Y-91666656D01*
X157292470Y-91907816D01*
X157718205Y-91992500D01*
X157761795Y-91992500D01*
X158187530Y-91907816D01*
X158548451Y-91666656D01*
X158789611Y-91305735D01*
X158874295Y-90880000D01*
X159145705Y-90880000D01*
X159230389Y-91305735D01*
X159471549Y-91666656D01*
X159832470Y-91907816D01*
X160258205Y-91992500D01*
X160301795Y-91992500D01*
X160727530Y-91907816D01*
X161088451Y-91666656D01*
X161329611Y-91305735D01*
X161414295Y-90880000D01*
X161329611Y-90454265D01*
X161088451Y-90093344D01*
X160727530Y-89852184D01*
X160301795Y-89767500D01*
X160258205Y-89767500D01*
X159832470Y-89852184D01*
X159471549Y-90093344D01*
X159230389Y-90454265D01*
X159145705Y-90880000D01*
X158874295Y-90880000D01*
X158789611Y-90454265D01*
X158548451Y-90093344D01*
X158187530Y-89852184D01*
X157761795Y-89767500D01*
X157718205Y-89767500D01*
X157292470Y-89852184D01*
X156931549Y-90093344D01*
X156690389Y-90454265D01*
X156605705Y-90880000D01*
X118078595Y-90880000D01*
X117993911Y-90454265D01*
X117752751Y-90093344D01*
X117391830Y-89852184D01*
X116966095Y-89767500D01*
X116922505Y-89767500D01*
X116496770Y-89852184D01*
X116135849Y-90093344D01*
X115894689Y-90454265D01*
X115810005Y-90880000D01*
X115538595Y-90880000D01*
X115453911Y-90454265D01*
X115212751Y-90093344D01*
X114851830Y-89852184D01*
X114426095Y-89767500D01*
X114382505Y-89767500D01*
X113956770Y-89852184D01*
X113595849Y-90093344D01*
X113354689Y-90454265D01*
X113270005Y-90880000D01*
X103887500Y-90880000D01*
X103887500Y-88340000D01*
X113270005Y-88340000D01*
X113354689Y-88765735D01*
X113595849Y-89126656D01*
X113956770Y-89367816D01*
X114382505Y-89452500D01*
X114426095Y-89452500D01*
X114851830Y-89367816D01*
X115212751Y-89126656D01*
X115453911Y-88765735D01*
X115496629Y-88550973D01*
X115851987Y-88550973D01*
X115854395Y-88563098D01*
X116022735Y-88963204D01*
X116331375Y-89268433D01*
X116733327Y-89432317D01*
X116906800Y-89386247D01*
X116906800Y-88377500D01*
X116981800Y-88377500D01*
X116981800Y-89386247D01*
X117155273Y-89432317D01*
X117557225Y-89268433D01*
X117865865Y-88963204D01*
X118034205Y-88563098D01*
X118036613Y-88550973D01*
X117990503Y-88377500D01*
X116981800Y-88377500D01*
X116906800Y-88377500D01*
X115898097Y-88377500D01*
X115851987Y-88550973D01*
X115496629Y-88550973D01*
X115538595Y-88340000D01*
X156605705Y-88340000D01*
X156690389Y-88765735D01*
X156931549Y-89126656D01*
X157292470Y-89367816D01*
X157718205Y-89452500D01*
X157761795Y-89452500D01*
X158187530Y-89367816D01*
X158548451Y-89126656D01*
X158789611Y-88765735D01*
X158874295Y-88340000D01*
X159145705Y-88340000D01*
X159230389Y-88765735D01*
X159471549Y-89126656D01*
X159832470Y-89367816D01*
X160258205Y-89452500D01*
X160301795Y-89452500D01*
X160727530Y-89367816D01*
X161088451Y-89126656D01*
X161329611Y-88765735D01*
X161414295Y-88340000D01*
X161329611Y-87914265D01*
X161088451Y-87553344D01*
X160727530Y-87312184D01*
X160301795Y-87227500D01*
X160258205Y-87227500D01*
X159832470Y-87312184D01*
X159471549Y-87553344D01*
X159230389Y-87914265D01*
X159145705Y-88340000D01*
X158874295Y-88340000D01*
X158789611Y-87914265D01*
X158548451Y-87553344D01*
X158187530Y-87312184D01*
X157761795Y-87227500D01*
X157718205Y-87227500D01*
X157292470Y-87312184D01*
X156931549Y-87553344D01*
X156690389Y-87914265D01*
X156605705Y-88340000D01*
X115538595Y-88340000D01*
X115496630Y-88129027D01*
X115851987Y-88129027D01*
X115898097Y-88302500D01*
X116906800Y-88302500D01*
X116906800Y-87293753D01*
X116981800Y-87293753D01*
X116981800Y-88302500D01*
X117990503Y-88302500D01*
X118036613Y-88129027D01*
X118034205Y-88116902D01*
X117865865Y-87716796D01*
X117557225Y-87411567D01*
X117155273Y-87247683D01*
X116981800Y-87293753D01*
X116906800Y-87293753D01*
X116733327Y-87247683D01*
X116331375Y-87411567D01*
X116022735Y-87716796D01*
X115854395Y-88116902D01*
X115851987Y-88129027D01*
X115496630Y-88129027D01*
X115453911Y-87914265D01*
X115212751Y-87553344D01*
X114851830Y-87312184D01*
X114426095Y-87227500D01*
X114382505Y-87227500D01*
X113956770Y-87312184D01*
X113595849Y-87553344D01*
X113354689Y-87914265D01*
X113270005Y-88340000D01*
X103887500Y-88340000D01*
X103887500Y-85800000D01*
X113270005Y-85800000D01*
X113354689Y-86225735D01*
X113595849Y-86586656D01*
X113956770Y-86827816D01*
X114382505Y-86912500D01*
X114426095Y-86912500D01*
X114851830Y-86827816D01*
X115212751Y-86586656D01*
X115453911Y-86225735D01*
X115538595Y-85800000D01*
X115810005Y-85800000D01*
X115894689Y-86225735D01*
X116135849Y-86586656D01*
X116496770Y-86827816D01*
X116922505Y-86912500D01*
X116966095Y-86912500D01*
X117391830Y-86827816D01*
X117752751Y-86586656D01*
X117993911Y-86225735D01*
X118078595Y-85800000D01*
X156605705Y-85800000D01*
X156690389Y-86225735D01*
X156931549Y-86586656D01*
X157292470Y-86827816D01*
X157718205Y-86912500D01*
X157761795Y-86912500D01*
X158187530Y-86827816D01*
X158548451Y-86586656D01*
X158789611Y-86225735D01*
X158832329Y-86010973D01*
X159187687Y-86010973D01*
X159190095Y-86023098D01*
X159358435Y-86423204D01*
X159667075Y-86728433D01*
X160069027Y-86892317D01*
X160242500Y-86846247D01*
X160242500Y-85837500D01*
X160317500Y-85837500D01*
X160317500Y-86846247D01*
X160490973Y-86892317D01*
X160892925Y-86728433D01*
X161201565Y-86423204D01*
X161369905Y-86023098D01*
X161372313Y-86010973D01*
X161326203Y-85837500D01*
X160317500Y-85837500D01*
X160242500Y-85837500D01*
X159233797Y-85837500D01*
X159187687Y-86010973D01*
X158832329Y-86010973D01*
X158874295Y-85800000D01*
X158832330Y-85589027D01*
X159187687Y-85589027D01*
X159233797Y-85762500D01*
X160242500Y-85762500D01*
X160242500Y-84753753D01*
X160317500Y-84753753D01*
X160317500Y-85762500D01*
X161326203Y-85762500D01*
X161372313Y-85589027D01*
X161369905Y-85576902D01*
X161201565Y-85176796D01*
X160892925Y-84871567D01*
X160490973Y-84707683D01*
X160317500Y-84753753D01*
X160242500Y-84753753D01*
X160069027Y-84707683D01*
X159667075Y-84871567D01*
X159358435Y-85176796D01*
X159190095Y-85576902D01*
X159187687Y-85589027D01*
X158832330Y-85589027D01*
X158789611Y-85374265D01*
X158548451Y-85013344D01*
X158187530Y-84772184D01*
X157761795Y-84687500D01*
X157718205Y-84687500D01*
X157292470Y-84772184D01*
X156931549Y-85013344D01*
X156690389Y-85374265D01*
X156605705Y-85800000D01*
X118078595Y-85800000D01*
X117993911Y-85374265D01*
X117752751Y-85013344D01*
X117391830Y-84772184D01*
X116966095Y-84687500D01*
X116922505Y-84687500D01*
X116496770Y-84772184D01*
X116135849Y-85013344D01*
X115894689Y-85374265D01*
X115810005Y-85800000D01*
X115538595Y-85800000D01*
X115453911Y-85374265D01*
X115212751Y-85013344D01*
X114851830Y-84772184D01*
X114426095Y-84687500D01*
X114382505Y-84687500D01*
X113956770Y-84772184D01*
X113595849Y-85013344D01*
X113354689Y-85374265D01*
X113270005Y-85800000D01*
X103887500Y-85800000D01*
X103887500Y-83260000D01*
X113270005Y-83260000D01*
X113354689Y-83685735D01*
X113595849Y-84046656D01*
X113956770Y-84287816D01*
X114382505Y-84372500D01*
X114426095Y-84372500D01*
X114851830Y-84287816D01*
X115212751Y-84046656D01*
X115453911Y-83685735D01*
X115538595Y-83260000D01*
X115810005Y-83260000D01*
X115894689Y-83685735D01*
X116135849Y-84046656D01*
X116496770Y-84287816D01*
X116922505Y-84372500D01*
X116966095Y-84372500D01*
X117391830Y-84287816D01*
X117752751Y-84046656D01*
X117993911Y-83685735D01*
X118078595Y-83260000D01*
X156605705Y-83260000D01*
X156690389Y-83685735D01*
X156931549Y-84046656D01*
X157292470Y-84287816D01*
X157718205Y-84372500D01*
X157761795Y-84372500D01*
X158187530Y-84287816D01*
X158548451Y-84046656D01*
X158789611Y-83685735D01*
X158874295Y-83260000D01*
X159145705Y-83260000D01*
X159230389Y-83685735D01*
X159471549Y-84046656D01*
X159832470Y-84287816D01*
X160258205Y-84372500D01*
X160301795Y-84372500D01*
X160727530Y-84287816D01*
X161088451Y-84046656D01*
X161329611Y-83685735D01*
X161414295Y-83260000D01*
X161329611Y-82834265D01*
X161088451Y-82473344D01*
X160727530Y-82232184D01*
X160301795Y-82147500D01*
X160258205Y-82147500D01*
X159832470Y-82232184D01*
X159471549Y-82473344D01*
X159230389Y-82834265D01*
X159145705Y-83260000D01*
X158874295Y-83260000D01*
X158789611Y-82834265D01*
X158548451Y-82473344D01*
X158187530Y-82232184D01*
X157761795Y-82147500D01*
X157718205Y-82147500D01*
X157292470Y-82232184D01*
X156931549Y-82473344D01*
X156690389Y-82834265D01*
X156605705Y-83260000D01*
X118078595Y-83260000D01*
X117993911Y-82834265D01*
X117752751Y-82473344D01*
X117391830Y-82232184D01*
X116966095Y-82147500D01*
X116922505Y-82147500D01*
X116496770Y-82232184D01*
X116135849Y-82473344D01*
X115894689Y-82834265D01*
X115810005Y-83260000D01*
X115538595Y-83260000D01*
X115453911Y-82834265D01*
X115212751Y-82473344D01*
X114851830Y-82232184D01*
X114426095Y-82147500D01*
X114382505Y-82147500D01*
X113956770Y-82232184D01*
X113595849Y-82473344D01*
X113354689Y-82834265D01*
X113270005Y-83260000D01*
X103887500Y-83260000D01*
X103887500Y-80720000D01*
X113270005Y-80720000D01*
X113354689Y-81145735D01*
X113595849Y-81506656D01*
X113956770Y-81747816D01*
X114382505Y-81832500D01*
X114426095Y-81832500D01*
X114851830Y-81747816D01*
X115212751Y-81506656D01*
X115453911Y-81145735D01*
X115538595Y-80720000D01*
X115810005Y-80720000D01*
X115894689Y-81145735D01*
X116135849Y-81506656D01*
X116496770Y-81747816D01*
X116922505Y-81832500D01*
X116966095Y-81832500D01*
X117391830Y-81747816D01*
X117752751Y-81506656D01*
X117993911Y-81145735D01*
X118078595Y-80720000D01*
X156605705Y-80720000D01*
X156690389Y-81145735D01*
X156931549Y-81506656D01*
X157292470Y-81747816D01*
X157718205Y-81832500D01*
X157761795Y-81832500D01*
X158187530Y-81747816D01*
X158548451Y-81506656D01*
X158789611Y-81145735D01*
X158874295Y-80720000D01*
X159145705Y-80720000D01*
X159230389Y-81145735D01*
X159471549Y-81506656D01*
X159832470Y-81747816D01*
X160258205Y-81832500D01*
X160301795Y-81832500D01*
X160727530Y-81747816D01*
X161088451Y-81506656D01*
X161329611Y-81145735D01*
X161414295Y-80720000D01*
X161329611Y-80294265D01*
X161088451Y-79933344D01*
X160727530Y-79692184D01*
X160301795Y-79607500D01*
X160258205Y-79607500D01*
X159832470Y-79692184D01*
X159471549Y-79933344D01*
X159230389Y-80294265D01*
X159145705Y-80720000D01*
X158874295Y-80720000D01*
X158789611Y-80294265D01*
X158548451Y-79933344D01*
X158187530Y-79692184D01*
X157761795Y-79607500D01*
X157718205Y-79607500D01*
X157292470Y-79692184D01*
X156931549Y-79933344D01*
X156690389Y-80294265D01*
X156605705Y-80720000D01*
X118078595Y-80720000D01*
X117993911Y-80294265D01*
X117752751Y-79933344D01*
X117391830Y-79692184D01*
X116966095Y-79607500D01*
X116922505Y-79607500D01*
X116496770Y-79692184D01*
X116135849Y-79933344D01*
X115894689Y-80294265D01*
X115810005Y-80720000D01*
X115538595Y-80720000D01*
X115453911Y-80294265D01*
X115212751Y-79933344D01*
X114851830Y-79692184D01*
X114426095Y-79607500D01*
X114382505Y-79607500D01*
X113956770Y-79692184D01*
X113595849Y-79933344D01*
X113354689Y-80294265D01*
X113270005Y-80720000D01*
X103887500Y-80720000D01*
X103887500Y-78390973D01*
X113311987Y-78390973D01*
X113314395Y-78403098D01*
X113482735Y-78803204D01*
X113791375Y-79108433D01*
X114193327Y-79272317D01*
X114366800Y-79226247D01*
X114366800Y-78217500D01*
X114441800Y-78217500D01*
X114441800Y-79226247D01*
X114615273Y-79272317D01*
X115017225Y-79108433D01*
X115325865Y-78803204D01*
X115494205Y-78403098D01*
X115496613Y-78390973D01*
X115450503Y-78217500D01*
X114441800Y-78217500D01*
X114366800Y-78217500D01*
X113358097Y-78217500D01*
X113311987Y-78390973D01*
X103887500Y-78390973D01*
X103887500Y-78180000D01*
X115810005Y-78180000D01*
X115894689Y-78605735D01*
X116135849Y-78966656D01*
X116496770Y-79207816D01*
X116922505Y-79292500D01*
X116966095Y-79292500D01*
X117391830Y-79207816D01*
X117752751Y-78966656D01*
X117993911Y-78605735D01*
X118078595Y-78180000D01*
X156605705Y-78180000D01*
X156690389Y-78605735D01*
X156931549Y-78966656D01*
X157292470Y-79207816D01*
X157718205Y-79292500D01*
X157761795Y-79292500D01*
X158187530Y-79207816D01*
X158548451Y-78966656D01*
X158789611Y-78605735D01*
X158874295Y-78180000D01*
X159145705Y-78180000D01*
X159230389Y-78605735D01*
X159471549Y-78966656D01*
X159832470Y-79207816D01*
X160258205Y-79292500D01*
X160301795Y-79292500D01*
X160727530Y-79207816D01*
X161088451Y-78966656D01*
X161329611Y-78605735D01*
X161414295Y-78180000D01*
X161329611Y-77754265D01*
X161088451Y-77393344D01*
X160727530Y-77152184D01*
X160301795Y-77067500D01*
X160258205Y-77067500D01*
X159832470Y-77152184D01*
X159471549Y-77393344D01*
X159230389Y-77754265D01*
X159145705Y-78180000D01*
X158874295Y-78180000D01*
X158789611Y-77754265D01*
X158548451Y-77393344D01*
X158187530Y-77152184D01*
X157761795Y-77067500D01*
X157718205Y-77067500D01*
X157292470Y-77152184D01*
X156931549Y-77393344D01*
X156690389Y-77754265D01*
X156605705Y-78180000D01*
X118078595Y-78180000D01*
X117993911Y-77754265D01*
X117752751Y-77393344D01*
X117391830Y-77152184D01*
X116966095Y-77067500D01*
X116922505Y-77067500D01*
X116496770Y-77152184D01*
X116135849Y-77393344D01*
X115894689Y-77754265D01*
X115810005Y-78180000D01*
X103887500Y-78180000D01*
X103887500Y-77969027D01*
X113311987Y-77969027D01*
X113358097Y-78142500D01*
X114366800Y-78142500D01*
X114366800Y-77133753D01*
X114441800Y-77133753D01*
X114441800Y-78142500D01*
X115450503Y-78142500D01*
X115496613Y-77969027D01*
X115494205Y-77956902D01*
X115325865Y-77556796D01*
X115017225Y-77251567D01*
X114615273Y-77087683D01*
X114441800Y-77133753D01*
X114366800Y-77133753D01*
X114193327Y-77087683D01*
X113791375Y-77251567D01*
X113482735Y-77556796D01*
X113314395Y-77956902D01*
X113311987Y-77969027D01*
X103887500Y-77969027D01*
X103887500Y-75640000D01*
X113270005Y-75640000D01*
X113354689Y-76065735D01*
X113595849Y-76426656D01*
X113956770Y-76667816D01*
X114382505Y-76752500D01*
X114426095Y-76752500D01*
X114851830Y-76667816D01*
X115212751Y-76426656D01*
X115453911Y-76065735D01*
X115538595Y-75640000D01*
X115810005Y-75640000D01*
X115894689Y-76065735D01*
X116135849Y-76426656D01*
X116496770Y-76667816D01*
X116922505Y-76752500D01*
X116966095Y-76752500D01*
X117391830Y-76667816D01*
X117752751Y-76426656D01*
X117993911Y-76065735D01*
X118078595Y-75640000D01*
X156605705Y-75640000D01*
X156690389Y-76065735D01*
X156931549Y-76426656D01*
X157292470Y-76667816D01*
X157718205Y-76752500D01*
X157761795Y-76752500D01*
X158187530Y-76667816D01*
X158548451Y-76426656D01*
X158789611Y-76065735D01*
X158832329Y-75850973D01*
X159187687Y-75850973D01*
X159190095Y-75863098D01*
X159358435Y-76263204D01*
X159667075Y-76568433D01*
X160069027Y-76732317D01*
X160242500Y-76686247D01*
X160242500Y-75677500D01*
X160317500Y-75677500D01*
X160317500Y-76686247D01*
X160490973Y-76732317D01*
X160892925Y-76568433D01*
X161201565Y-76263204D01*
X161369905Y-75863098D01*
X161372313Y-75850973D01*
X161326203Y-75677500D01*
X160317500Y-75677500D01*
X160242500Y-75677500D01*
X159233797Y-75677500D01*
X159187687Y-75850973D01*
X158832329Y-75850973D01*
X158874295Y-75640000D01*
X158832330Y-75429027D01*
X159187687Y-75429027D01*
X159233797Y-75602500D01*
X160242500Y-75602500D01*
X160242500Y-74593753D01*
X160317500Y-74593753D01*
X160317500Y-75602500D01*
X161326203Y-75602500D01*
X161372313Y-75429027D01*
X161369905Y-75416902D01*
X161201565Y-75016796D01*
X160892925Y-74711567D01*
X160490973Y-74547683D01*
X160317500Y-74593753D01*
X160242500Y-74593753D01*
X160069027Y-74547683D01*
X159667075Y-74711567D01*
X159358435Y-75016796D01*
X159190095Y-75416902D01*
X159187687Y-75429027D01*
X158832330Y-75429027D01*
X158789611Y-75214265D01*
X158548451Y-74853344D01*
X158187530Y-74612184D01*
X157761795Y-74527500D01*
X157718205Y-74527500D01*
X157292470Y-74612184D01*
X156931549Y-74853344D01*
X156690389Y-75214265D01*
X156605705Y-75640000D01*
X118078595Y-75640000D01*
X117993911Y-75214265D01*
X117752751Y-74853344D01*
X117391830Y-74612184D01*
X116966095Y-74527500D01*
X116922505Y-74527500D01*
X116496770Y-74612184D01*
X116135849Y-74853344D01*
X115894689Y-75214265D01*
X115810005Y-75640000D01*
X115538595Y-75640000D01*
X115453911Y-75214265D01*
X115212751Y-74853344D01*
X114851830Y-74612184D01*
X114426095Y-74527500D01*
X114382505Y-74527500D01*
X113956770Y-74612184D01*
X113595849Y-74853344D01*
X113354689Y-75214265D01*
X113270005Y-75640000D01*
X103887500Y-75640000D01*
X103887500Y-73100000D01*
X113270005Y-73100000D01*
X113354689Y-73525735D01*
X113595849Y-73886656D01*
X113956770Y-74127816D01*
X114382505Y-74212500D01*
X114426095Y-74212500D01*
X114851830Y-74127816D01*
X115212751Y-73886656D01*
X115453911Y-73525735D01*
X115538595Y-73100000D01*
X115810005Y-73100000D01*
X115894689Y-73525735D01*
X116135849Y-73886656D01*
X116496770Y-74127816D01*
X116922505Y-74212500D01*
X116966095Y-74212500D01*
X117391830Y-74127816D01*
X117752751Y-73886656D01*
X117993911Y-73525735D01*
X118078595Y-73100000D01*
X156605705Y-73100000D01*
X156690389Y-73525735D01*
X156931549Y-73886656D01*
X157292470Y-74127816D01*
X157718205Y-74212500D01*
X157761795Y-74212500D01*
X158187530Y-74127816D01*
X158548451Y-73886656D01*
X158789611Y-73525735D01*
X158874295Y-73100000D01*
X159145705Y-73100000D01*
X159230389Y-73525735D01*
X159471549Y-73886656D01*
X159832470Y-74127816D01*
X160258205Y-74212500D01*
X160301795Y-74212500D01*
X160727530Y-74127816D01*
X161088451Y-73886656D01*
X161329611Y-73525735D01*
X161414295Y-73100000D01*
X161329611Y-72674265D01*
X161088451Y-72313344D01*
X160727530Y-72072184D01*
X160301795Y-71987500D01*
X160258205Y-71987500D01*
X159832470Y-72072184D01*
X159471549Y-72313344D01*
X159230389Y-72674265D01*
X159145705Y-73100000D01*
X158874295Y-73100000D01*
X158789611Y-72674265D01*
X158548451Y-72313344D01*
X158187530Y-72072184D01*
X157761795Y-71987500D01*
X157718205Y-71987500D01*
X157292470Y-72072184D01*
X156931549Y-72313344D01*
X156690389Y-72674265D01*
X156605705Y-73100000D01*
X118078595Y-73100000D01*
X117993911Y-72674265D01*
X117752751Y-72313344D01*
X117391830Y-72072184D01*
X116966095Y-71987500D01*
X116922505Y-71987500D01*
X116496770Y-72072184D01*
X116135849Y-72313344D01*
X115894689Y-72674265D01*
X115810005Y-73100000D01*
X115538595Y-73100000D01*
X115453911Y-72674265D01*
X115212751Y-72313344D01*
X114851830Y-72072184D01*
X114426095Y-71987500D01*
X114382505Y-71987500D01*
X113956770Y-72072184D01*
X113595849Y-72313344D01*
X113354689Y-72674265D01*
X113270005Y-73100000D01*
X103887500Y-73100000D01*
X103887500Y-70560000D01*
X113270005Y-70560000D01*
X113354689Y-70985735D01*
X113595849Y-71346656D01*
X113956770Y-71587816D01*
X114382505Y-71672500D01*
X114426095Y-71672500D01*
X114851830Y-71587816D01*
X115212751Y-71346656D01*
X115453911Y-70985735D01*
X115538595Y-70560000D01*
X115810005Y-70560000D01*
X115894689Y-70985735D01*
X116135849Y-71346656D01*
X116496770Y-71587816D01*
X116922505Y-71672500D01*
X116966095Y-71672500D01*
X117391830Y-71587816D01*
X117752751Y-71346656D01*
X117993911Y-70985735D01*
X118078595Y-70560000D01*
X156605705Y-70560000D01*
X156690389Y-70985735D01*
X156931549Y-71346656D01*
X157292470Y-71587816D01*
X157718205Y-71672500D01*
X157761795Y-71672500D01*
X158187530Y-71587816D01*
X158548451Y-71346656D01*
X158789611Y-70985735D01*
X158874295Y-70560000D01*
X159145705Y-70560000D01*
X159230389Y-70985735D01*
X159471549Y-71346656D01*
X159832470Y-71587816D01*
X160258205Y-71672500D01*
X160301795Y-71672500D01*
X160727530Y-71587816D01*
X161088451Y-71346656D01*
X161329611Y-70985735D01*
X161414295Y-70560000D01*
X161329611Y-70134265D01*
X161088451Y-69773344D01*
X160727530Y-69532184D01*
X160301795Y-69447500D01*
X160258205Y-69447500D01*
X159832470Y-69532184D01*
X159471549Y-69773344D01*
X159230389Y-70134265D01*
X159145705Y-70560000D01*
X158874295Y-70560000D01*
X158789611Y-70134265D01*
X158548451Y-69773344D01*
X158187530Y-69532184D01*
X157761795Y-69447500D01*
X157718205Y-69447500D01*
X157292470Y-69532184D01*
X156931549Y-69773344D01*
X156690389Y-70134265D01*
X156605705Y-70560000D01*
X118078595Y-70560000D01*
X117993911Y-70134265D01*
X117752751Y-69773344D01*
X117391830Y-69532184D01*
X116966095Y-69447500D01*
X116922505Y-69447500D01*
X116496770Y-69532184D01*
X116135849Y-69773344D01*
X115894689Y-70134265D01*
X115810005Y-70560000D01*
X115538595Y-70560000D01*
X115453911Y-70134265D01*
X115212751Y-69773344D01*
X114851830Y-69532184D01*
X114426095Y-69447500D01*
X114382505Y-69447500D01*
X113956770Y-69532184D01*
X113595849Y-69773344D01*
X113354689Y-70134265D01*
X113270005Y-70560000D01*
X103887500Y-70560000D01*
X103887500Y-67170000D01*
X113286658Y-67170000D01*
X113286658Y-68870000D01*
X113304962Y-68967276D01*
X113362452Y-69056619D01*
X113450172Y-69116556D01*
X113554300Y-69137642D01*
X115254300Y-69137642D01*
X115351576Y-69119338D01*
X115440919Y-69061848D01*
X115500856Y-68974128D01*
X115521942Y-68870000D01*
X115521942Y-68434900D01*
X115892534Y-68434900D01*
X115894689Y-68445735D01*
X116135849Y-68806656D01*
X116496770Y-69047816D01*
X116922505Y-69132500D01*
X116966095Y-69132500D01*
X117391830Y-69047816D01*
X117752751Y-68806656D01*
X117993911Y-68445735D01*
X118078595Y-68020000D01*
X117993911Y-67594265D01*
X117752751Y-67233344D01*
X117391830Y-66992184D01*
X116966095Y-66907500D01*
X116922505Y-66907500D01*
X116496770Y-66992184D01*
X116135849Y-67233344D01*
X115894689Y-67594265D01*
X115892534Y-67605100D01*
X115521942Y-67605100D01*
X115521942Y-67170000D01*
X115503638Y-67072724D01*
X115446148Y-66983381D01*
X115358428Y-66923444D01*
X115254300Y-66902358D01*
X113554300Y-66902358D01*
X113457024Y-66920662D01*
X113367681Y-66978152D01*
X113307744Y-67065872D01*
X113286658Y-67170000D01*
X103887500Y-67170000D01*
X103887500Y-64637500D01*
X127154495Y-64637500D01*
X126717791Y-65073443D01*
X126717791Y-65073443D01*
G37*
X126717791Y-65073443D02*
X126387876Y-65867965D01*
X126387125Y-66728261D01*
X126715653Y-67523358D01*
X127323443Y-68132209D01*
X128117965Y-68462124D01*
X128978261Y-68462875D01*
X129773358Y-68134347D01*
X130382209Y-67526557D01*
X130712124Y-66732035D01*
X130712875Y-65871739D01*
X130384347Y-65076642D01*
X129945970Y-64637500D01*
X143754495Y-64637500D01*
X143317791Y-65073443D01*
X142987876Y-65867965D01*
X142987125Y-66728261D01*
X143315653Y-67523358D01*
X143923443Y-68132209D01*
X144717965Y-68462124D01*
X145578261Y-68462875D01*
X146373358Y-68134347D01*
X146982209Y-67526557D01*
X147130264Y-67170000D01*
X156622358Y-67170000D01*
X156622358Y-68870000D01*
X156640662Y-68967276D01*
X156698152Y-69056619D01*
X156785872Y-69116556D01*
X156890000Y-69137642D01*
X158590000Y-69137642D01*
X158687276Y-69119338D01*
X158776619Y-69061848D01*
X158836556Y-68974128D01*
X158857642Y-68870000D01*
X158857642Y-68434900D01*
X159228234Y-68434900D01*
X159230389Y-68445735D01*
X159471549Y-68806656D01*
X159832470Y-69047816D01*
X160258205Y-69132500D01*
X160301795Y-69132500D01*
X160727530Y-69047816D01*
X161088451Y-68806656D01*
X161329611Y-68445735D01*
X161414295Y-68020000D01*
X161329611Y-67594265D01*
X161088451Y-67233344D01*
X160727530Y-66992184D01*
X160301795Y-66907500D01*
X160258205Y-66907500D01*
X159832470Y-66992184D01*
X159471549Y-67233344D01*
X159230389Y-67594265D01*
X159228234Y-67605100D01*
X158857642Y-67605100D01*
X158857642Y-67170000D01*
X158839338Y-67072724D01*
X158781848Y-66983381D01*
X158694128Y-66923444D01*
X158590000Y-66902358D01*
X156890000Y-66902358D01*
X156792724Y-66920662D01*
X156703381Y-66978152D01*
X156643444Y-67065872D01*
X156622358Y-67170000D01*
X147130264Y-67170000D01*
X147312124Y-66732035D01*
X147312875Y-65871739D01*
X146984347Y-65076642D01*
X146545970Y-64637500D01*
X170212500Y-64637500D01*
X170212500Y-131962500D01*
X103887500Y-131962500D01*
X103887500Y-128980000D01*
X113270005Y-128980000D01*
X113354689Y-129405735D01*
X113595849Y-129766656D01*
X113956770Y-130007816D01*
X114382505Y-130092500D01*
X114426095Y-130092500D01*
X114851830Y-130007816D01*
X115212751Y-129766656D01*
X115453911Y-129405735D01*
X115496629Y-129190973D01*
X115851987Y-129190973D01*
X115854395Y-129203098D01*
X116022735Y-129603204D01*
X116331375Y-129908433D01*
X116733327Y-130072317D01*
X116906800Y-130026247D01*
X116906800Y-129017500D01*
X116981800Y-129017500D01*
X116981800Y-130026247D01*
X117155273Y-130072317D01*
X117557225Y-129908433D01*
X117865865Y-129603204D01*
X118034205Y-129203098D01*
X118036613Y-129190973D01*
X156647687Y-129190973D01*
X156650095Y-129203098D01*
X156818435Y-129603204D01*
X157127075Y-129908433D01*
X157529027Y-130072317D01*
X157702500Y-130026247D01*
X157702500Y-129017500D01*
X157777500Y-129017500D01*
X157777500Y-130026247D01*
X157950973Y-130072317D01*
X158352925Y-129908433D01*
X158661565Y-129603204D01*
X158829905Y-129203098D01*
X158832313Y-129190973D01*
X158786203Y-129017500D01*
X157777500Y-129017500D01*
X157702500Y-129017500D01*
X156693797Y-129017500D01*
X156647687Y-129190973D01*
X118036613Y-129190973D01*
X117990503Y-129017500D01*
X116981800Y-129017500D01*
X116906800Y-129017500D01*
X115898097Y-129017500D01*
X115851987Y-129190973D01*
X115496629Y-129190973D01*
X115538595Y-128980000D01*
X159145705Y-128980000D01*
X159230389Y-129405735D01*
X159471549Y-129766656D01*
X159832470Y-130007816D01*
X160258205Y-130092500D01*
X160301795Y-130092500D01*
X160727530Y-130007816D01*
X161088451Y-129766656D01*
X161329611Y-129405735D01*
X161414295Y-128980000D01*
X161329611Y-128554265D01*
X161088451Y-128193344D01*
X160727530Y-127952184D01*
X160301795Y-127867500D01*
X160258205Y-127867500D01*
X159832470Y-127952184D01*
X159471549Y-128193344D01*
X159230389Y-128554265D01*
X159145705Y-128980000D01*
X115538595Y-128980000D01*
X115496630Y-128769027D01*
X115851987Y-128769027D01*
X115898097Y-128942500D01*
X116906800Y-128942500D01*
X116906800Y-127933753D01*
X116981800Y-127933753D01*
X116981800Y-128942500D01*
X117990503Y-128942500D01*
X118036613Y-128769027D01*
X156647687Y-128769027D01*
X156693797Y-128942500D01*
X157702500Y-128942500D01*
X157702500Y-127933753D01*
X157777500Y-127933753D01*
X157777500Y-128942500D01*
X158786203Y-128942500D01*
X158832313Y-128769027D01*
X158829905Y-128756902D01*
X158661565Y-128356796D01*
X158352925Y-128051567D01*
X157950973Y-127887683D01*
X157777500Y-127933753D01*
X157702500Y-127933753D01*
X157529027Y-127887683D01*
X157127075Y-128051567D01*
X156818435Y-128356796D01*
X156650095Y-128756902D01*
X156647687Y-128769027D01*
X118036613Y-128769027D01*
X118034205Y-128756902D01*
X117865865Y-128356796D01*
X117557225Y-128051567D01*
X117155273Y-127887683D01*
X116981800Y-127933753D01*
X116906800Y-127933753D01*
X116733327Y-127887683D01*
X116331375Y-128051567D01*
X116022735Y-128356796D01*
X115854395Y-128756902D01*
X115851987Y-128769027D01*
X115496630Y-128769027D01*
X115453911Y-128554265D01*
X115212751Y-128193344D01*
X114851830Y-127952184D01*
X114426095Y-127867500D01*
X114382505Y-127867500D01*
X113956770Y-127952184D01*
X113595849Y-128193344D01*
X113354689Y-128554265D01*
X113270005Y-128980000D01*
X103887500Y-128980000D01*
X103887500Y-126440000D01*
X113270005Y-126440000D01*
X113354689Y-126865735D01*
X113595849Y-127226656D01*
X113956770Y-127467816D01*
X114382505Y-127552500D01*
X114426095Y-127552500D01*
X114851830Y-127467816D01*
X115212751Y-127226656D01*
X115453911Y-126865735D01*
X115496629Y-126650973D01*
X115851987Y-126650973D01*
X115854395Y-126663098D01*
X116022735Y-127063204D01*
X116331375Y-127368433D01*
X116733327Y-127532317D01*
X116906800Y-127486247D01*
X116906800Y-126477500D01*
X116981800Y-126477500D01*
X116981800Y-127486247D01*
X117155273Y-127532317D01*
X117557225Y-127368433D01*
X117865865Y-127063204D01*
X118034205Y-126663098D01*
X118036613Y-126650973D01*
X117990503Y-126477500D01*
X116981800Y-126477500D01*
X116906800Y-126477500D01*
X115898097Y-126477500D01*
X115851987Y-126650973D01*
X115496629Y-126650973D01*
X115538595Y-126440000D01*
X156605705Y-126440000D01*
X156690389Y-126865735D01*
X156931549Y-127226656D01*
X157292470Y-127467816D01*
X157718205Y-127552500D01*
X157761795Y-127552500D01*
X158187530Y-127467816D01*
X158548451Y-127226656D01*
X158789611Y-126865735D01*
X158874295Y-126440000D01*
X159145705Y-126440000D01*
X159230389Y-126865735D01*
X159471549Y-127226656D01*
X159832470Y-127467816D01*
X160258205Y-127552500D01*
X160301795Y-127552500D01*
X160727530Y-127467816D01*
X161088451Y-127226656D01*
X161329611Y-126865735D01*
X161414295Y-126440000D01*
X161329611Y-126014265D01*
X161088451Y-125653344D01*
X160727530Y-125412184D01*
X160301795Y-125327500D01*
X160258205Y-125327500D01*
X159832470Y-125412184D01*
X159471549Y-125653344D01*
X159230389Y-126014265D01*
X159145705Y-126440000D01*
X158874295Y-126440000D01*
X158789611Y-126014265D01*
X158548451Y-125653344D01*
X158187530Y-125412184D01*
X157761795Y-125327500D01*
X157718205Y-125327500D01*
X157292470Y-125412184D01*
X156931549Y-125653344D01*
X156690389Y-126014265D01*
X156605705Y-126440000D01*
X115538595Y-126440000D01*
X115496630Y-126229027D01*
X115851987Y-126229027D01*
X115898097Y-126402500D01*
X116906800Y-126402500D01*
X116906800Y-125393753D01*
X116981800Y-125393753D01*
X116981800Y-126402500D01*
X117990503Y-126402500D01*
X118036613Y-126229027D01*
X118034205Y-126216902D01*
X117865865Y-125816796D01*
X117557225Y-125511567D01*
X117155273Y-125347683D01*
X116981800Y-125393753D01*
X116906800Y-125393753D01*
X116733327Y-125347683D01*
X116331375Y-125511567D01*
X116022735Y-125816796D01*
X115854395Y-126216902D01*
X115851987Y-126229027D01*
X115496630Y-126229027D01*
X115453911Y-126014265D01*
X115212751Y-125653344D01*
X114851830Y-125412184D01*
X114426095Y-125327500D01*
X114382505Y-125327500D01*
X113956770Y-125412184D01*
X113595849Y-125653344D01*
X113354689Y-126014265D01*
X113270005Y-126440000D01*
X103887500Y-126440000D01*
X103887500Y-123900000D01*
X113270005Y-123900000D01*
X113354689Y-124325735D01*
X113595849Y-124686656D01*
X113956770Y-124927816D01*
X114382505Y-125012500D01*
X114426095Y-125012500D01*
X114851830Y-124927816D01*
X115212751Y-124686656D01*
X115453911Y-124325735D01*
X115538595Y-123900000D01*
X115810005Y-123900000D01*
X115894689Y-124325735D01*
X116135849Y-124686656D01*
X116496770Y-124927816D01*
X116922505Y-125012500D01*
X116966095Y-125012500D01*
X117391830Y-124927816D01*
X117752751Y-124686656D01*
X117993911Y-124325735D01*
X118078595Y-123900000D01*
X156605705Y-123900000D01*
X156690389Y-124325735D01*
X156931549Y-124686656D01*
X157292470Y-124927816D01*
X157718205Y-125012500D01*
X157761795Y-125012500D01*
X158187530Y-124927816D01*
X158548451Y-124686656D01*
X158789611Y-124325735D01*
X158874295Y-123900000D01*
X159145705Y-123900000D01*
X159230389Y-124325735D01*
X159471549Y-124686656D01*
X159832470Y-124927816D01*
X160258205Y-125012500D01*
X160301795Y-125012500D01*
X160727530Y-124927816D01*
X161088451Y-124686656D01*
X161329611Y-124325735D01*
X161414295Y-123900000D01*
X161329611Y-123474265D01*
X161088451Y-123113344D01*
X160727530Y-122872184D01*
X160301795Y-122787500D01*
X160258205Y-122787500D01*
X159832470Y-122872184D01*
X159471549Y-123113344D01*
X159230389Y-123474265D01*
X159145705Y-123900000D01*
X158874295Y-123900000D01*
X158789611Y-123474265D01*
X158548451Y-123113344D01*
X158187530Y-122872184D01*
X157761795Y-122787500D01*
X157718205Y-122787500D01*
X157292470Y-122872184D01*
X156931549Y-123113344D01*
X156690389Y-123474265D01*
X156605705Y-123900000D01*
X118078595Y-123900000D01*
X117993911Y-123474265D01*
X117752751Y-123113344D01*
X117391830Y-122872184D01*
X116966095Y-122787500D01*
X116922505Y-122787500D01*
X116496770Y-122872184D01*
X116135849Y-123113344D01*
X115894689Y-123474265D01*
X115810005Y-123900000D01*
X115538595Y-123900000D01*
X115453911Y-123474265D01*
X115212751Y-123113344D01*
X114851830Y-122872184D01*
X114426095Y-122787500D01*
X114382505Y-122787500D01*
X113956770Y-122872184D01*
X113595849Y-123113344D01*
X113354689Y-123474265D01*
X113270005Y-123900000D01*
X103887500Y-123900000D01*
X103887500Y-121360000D01*
X113270005Y-121360000D01*
X113354689Y-121785735D01*
X113595849Y-122146656D01*
X113956770Y-122387816D01*
X114382505Y-122472500D01*
X114426095Y-122472500D01*
X114851830Y-122387816D01*
X115212751Y-122146656D01*
X115453911Y-121785735D01*
X115538595Y-121360000D01*
X115810005Y-121360000D01*
X115894689Y-121785735D01*
X116135849Y-122146656D01*
X116496770Y-122387816D01*
X116922505Y-122472500D01*
X116966095Y-122472500D01*
X117391830Y-122387816D01*
X117752751Y-122146656D01*
X117993911Y-121785735D01*
X118078595Y-121360000D01*
X156605705Y-121360000D01*
X156690389Y-121785735D01*
X156931549Y-122146656D01*
X157292470Y-122387816D01*
X157718205Y-122472500D01*
X157761795Y-122472500D01*
X158187530Y-122387816D01*
X158548451Y-122146656D01*
X158789611Y-121785735D01*
X158874295Y-121360000D01*
X159145705Y-121360000D01*
X159230389Y-121785735D01*
X159471549Y-122146656D01*
X159832470Y-122387816D01*
X160258205Y-122472500D01*
X160301795Y-122472500D01*
X160727530Y-122387816D01*
X161088451Y-122146656D01*
X161329611Y-121785735D01*
X161414295Y-121360000D01*
X161329611Y-120934265D01*
X161088451Y-120573344D01*
X160727530Y-120332184D01*
X160301795Y-120247500D01*
X160258205Y-120247500D01*
X159832470Y-120332184D01*
X159471549Y-120573344D01*
X159230389Y-120934265D01*
X159145705Y-121360000D01*
X158874295Y-121360000D01*
X158789611Y-120934265D01*
X158548451Y-120573344D01*
X158187530Y-120332184D01*
X157761795Y-120247500D01*
X157718205Y-120247500D01*
X157292470Y-120332184D01*
X156931549Y-120573344D01*
X156690389Y-120934265D01*
X156605705Y-121360000D01*
X118078595Y-121360000D01*
X117993911Y-120934265D01*
X117752751Y-120573344D01*
X117391830Y-120332184D01*
X116966095Y-120247500D01*
X116922505Y-120247500D01*
X116496770Y-120332184D01*
X116135849Y-120573344D01*
X115894689Y-120934265D01*
X115810005Y-121360000D01*
X115538595Y-121360000D01*
X115453911Y-120934265D01*
X115212751Y-120573344D01*
X114851830Y-120332184D01*
X114426095Y-120247500D01*
X114382505Y-120247500D01*
X113956770Y-120332184D01*
X113595849Y-120573344D01*
X113354689Y-120934265D01*
X113270005Y-121360000D01*
X103887500Y-121360000D01*
X103887500Y-118820000D01*
X113270005Y-118820000D01*
X113354689Y-119245735D01*
X113595849Y-119606656D01*
X113956770Y-119847816D01*
X114382505Y-119932500D01*
X114426095Y-119932500D01*
X114851830Y-119847816D01*
X115212751Y-119606656D01*
X115453911Y-119245735D01*
X115538595Y-118820000D01*
X115810005Y-118820000D01*
X115894689Y-119245735D01*
X116135849Y-119606656D01*
X116496770Y-119847816D01*
X116922505Y-119932500D01*
X116966095Y-119932500D01*
X117391830Y-119847816D01*
X117752751Y-119606656D01*
X117993911Y-119245735D01*
X118078595Y-118820000D01*
X156605705Y-118820000D01*
X156690389Y-119245735D01*
X156931549Y-119606656D01*
X157292470Y-119847816D01*
X157718205Y-119932500D01*
X157761795Y-119932500D01*
X158187530Y-119847816D01*
X158548451Y-119606656D01*
X158789611Y-119245735D01*
X158874295Y-118820000D01*
X159145705Y-118820000D01*
X159230389Y-119245735D01*
X159471549Y-119606656D01*
X159832470Y-119847816D01*
X160258205Y-119932500D01*
X160301795Y-119932500D01*
X160727530Y-119847816D01*
X161088451Y-119606656D01*
X161329611Y-119245735D01*
X161414295Y-118820000D01*
X161329611Y-118394265D01*
X161088451Y-118033344D01*
X160727530Y-117792184D01*
X160301795Y-117707500D01*
X160258205Y-117707500D01*
X159832470Y-117792184D01*
X159471549Y-118033344D01*
X159230389Y-118394265D01*
X159145705Y-118820000D01*
X158874295Y-118820000D01*
X158789611Y-118394265D01*
X158548451Y-118033344D01*
X158187530Y-117792184D01*
X157761795Y-117707500D01*
X157718205Y-117707500D01*
X157292470Y-117792184D01*
X156931549Y-118033344D01*
X156690389Y-118394265D01*
X156605705Y-118820000D01*
X118078595Y-118820000D01*
X117993911Y-118394265D01*
X117752751Y-118033344D01*
X117391830Y-117792184D01*
X116966095Y-117707500D01*
X116922505Y-117707500D01*
X116496770Y-117792184D01*
X116135849Y-118033344D01*
X115894689Y-118394265D01*
X115810005Y-118820000D01*
X115538595Y-118820000D01*
X115453911Y-118394265D01*
X115212751Y-118033344D01*
X114851830Y-117792184D01*
X114426095Y-117707500D01*
X114382505Y-117707500D01*
X113956770Y-117792184D01*
X113595849Y-118033344D01*
X113354689Y-118394265D01*
X113270005Y-118820000D01*
X103887500Y-118820000D01*
X103887500Y-116280000D01*
X113270005Y-116280000D01*
X113354689Y-116705735D01*
X113595849Y-117066656D01*
X113956770Y-117307816D01*
X114382505Y-117392500D01*
X114426095Y-117392500D01*
X114851830Y-117307816D01*
X115212751Y-117066656D01*
X115453911Y-116705735D01*
X115538595Y-116280000D01*
X115810005Y-116280000D01*
X115894689Y-116705735D01*
X116135849Y-117066656D01*
X116496770Y-117307816D01*
X116922505Y-117392500D01*
X116966095Y-117392500D01*
X117391830Y-117307816D01*
X117752751Y-117066656D01*
X117993911Y-116705735D01*
X118036629Y-116490973D01*
X156647687Y-116490973D01*
X156650095Y-116503098D01*
X156818435Y-116903204D01*
X157127075Y-117208433D01*
X157529027Y-117372317D01*
X157702500Y-117326247D01*
X157702500Y-116317500D01*
X157777500Y-116317500D01*
X157777500Y-117326247D01*
X157950973Y-117372317D01*
X158352925Y-117208433D01*
X158661565Y-116903204D01*
X158829905Y-116503098D01*
X158832313Y-116490973D01*
X158786203Y-116317500D01*
X157777500Y-116317500D01*
X157702500Y-116317500D01*
X156693797Y-116317500D01*
X156647687Y-116490973D01*
X118036629Y-116490973D01*
X118078595Y-116280000D01*
X118036630Y-116069027D01*
X156647687Y-116069027D01*
X156693797Y-116242500D01*
X157702500Y-116242500D01*
X157702500Y-115233753D01*
X157777500Y-115233753D01*
X157777500Y-116242500D01*
X158786203Y-116242500D01*
X158832313Y-116069027D01*
X158829905Y-116056902D01*
X158661565Y-115656796D01*
X158352925Y-115351567D01*
X157950973Y-115187683D01*
X157777500Y-115233753D01*
X157702500Y-115233753D01*
X157529027Y-115187683D01*
X157127075Y-115351567D01*
X156818435Y-115656796D01*
X156650095Y-116056902D01*
X156647687Y-116069027D01*
X118036630Y-116069027D01*
X117993911Y-115854265D01*
X117752751Y-115493344D01*
X117391830Y-115252184D01*
X116966095Y-115167500D01*
X116922505Y-115167500D01*
X116496770Y-115252184D01*
X116135849Y-115493344D01*
X115894689Y-115854265D01*
X115810005Y-116280000D01*
X115538595Y-116280000D01*
X115453911Y-115854265D01*
X115212751Y-115493344D01*
X114851830Y-115252184D01*
X114426095Y-115167500D01*
X114382505Y-115167500D01*
X113956770Y-115252184D01*
X113595849Y-115493344D01*
X113354689Y-115854265D01*
X113270005Y-116280000D01*
X103887500Y-116280000D01*
X103887500Y-113740000D01*
X113270005Y-113740000D01*
X113354689Y-114165735D01*
X113595849Y-114526656D01*
X113956770Y-114767816D01*
X114382505Y-114852500D01*
X114426095Y-114852500D01*
X114851830Y-114767816D01*
X115212751Y-114526656D01*
X115453911Y-114165735D01*
X115538595Y-113740000D01*
X115810005Y-113740000D01*
X115894689Y-114165735D01*
X116135849Y-114526656D01*
X116496770Y-114767816D01*
X116922505Y-114852500D01*
X116966095Y-114852500D01*
X117391830Y-114767816D01*
X117752751Y-114526656D01*
X117993911Y-114165735D01*
X118078595Y-113740000D01*
X117993911Y-113314265D01*
X117752751Y-112953344D01*
X117415891Y-112728261D01*
X126387125Y-112728261D01*
X126715653Y-113523358D01*
X127323443Y-114132209D01*
X128117965Y-114462124D01*
X128978261Y-114462875D01*
X129773358Y-114134347D01*
X130382209Y-113526557D01*
X130712124Y-112732035D01*
X130712127Y-112728261D01*
X142987125Y-112728261D01*
X143315653Y-113523358D01*
X143923443Y-114132209D01*
X144717965Y-114462124D01*
X145578261Y-114462875D01*
X146373358Y-114134347D01*
X146768393Y-113740000D01*
X156605705Y-113740000D01*
X156690389Y-114165735D01*
X156931549Y-114526656D01*
X157292470Y-114767816D01*
X157718205Y-114852500D01*
X157761795Y-114852500D01*
X158187530Y-114767816D01*
X158248250Y-114727244D01*
X159288421Y-115767415D01*
X159230389Y-115854265D01*
X159145705Y-116280000D01*
X159230389Y-116705735D01*
X159471549Y-117066656D01*
X159832470Y-117307816D01*
X160258205Y-117392500D01*
X160301795Y-117392500D01*
X160727530Y-117307816D01*
X161088451Y-117066656D01*
X161329611Y-116705735D01*
X161414295Y-116280000D01*
X161329611Y-115854265D01*
X161088451Y-115493344D01*
X160727530Y-115252184D01*
X160301795Y-115167500D01*
X160258205Y-115167500D01*
X159832470Y-115252184D01*
X159771750Y-115292756D01*
X158731579Y-114252585D01*
X158789611Y-114165735D01*
X158874295Y-113740000D01*
X159145705Y-113740000D01*
X159230389Y-114165735D01*
X159471549Y-114526656D01*
X159832470Y-114767816D01*
X160258205Y-114852500D01*
X160301795Y-114852500D01*
X160727530Y-114767816D01*
X161088451Y-114526656D01*
X161329611Y-114165735D01*
X161414295Y-113740000D01*
X161329611Y-113314265D01*
X161088451Y-112953344D01*
X160727530Y-112712184D01*
X160301795Y-112627500D01*
X160258205Y-112627500D01*
X159832470Y-112712184D01*
X159471549Y-112953344D01*
X159230389Y-113314265D01*
X159145705Y-113740000D01*
X158874295Y-113740000D01*
X158789611Y-113314265D01*
X158548451Y-112953344D01*
X158187530Y-112712184D01*
X157761795Y-112627500D01*
X157718205Y-112627500D01*
X157292470Y-112712184D01*
X156931549Y-112953344D01*
X156690389Y-113314265D01*
X156605705Y-113740000D01*
X146768393Y-113740000D01*
X146982209Y-113526557D01*
X147312124Y-112732035D01*
X147312875Y-111871739D01*
X147035318Y-111200000D01*
X156605705Y-111200000D01*
X156690389Y-111625735D01*
X156931549Y-111986656D01*
X157292470Y-112227816D01*
X157718205Y-112312500D01*
X157761795Y-112312500D01*
X158187530Y-112227816D01*
X158548451Y-111986656D01*
X158789611Y-111625735D01*
X158874295Y-111200000D01*
X159145705Y-111200000D01*
X159230389Y-111625735D01*
X159471549Y-111986656D01*
X159832470Y-112227816D01*
X160258205Y-112312500D01*
X160301795Y-112312500D01*
X160727530Y-112227816D01*
X161088451Y-111986656D01*
X161329611Y-111625735D01*
X161414295Y-111200000D01*
X161329611Y-110774265D01*
X161088451Y-110413344D01*
X160727530Y-110172184D01*
X160301795Y-110087500D01*
X160258205Y-110087500D01*
X159832470Y-110172184D01*
X159471549Y-110413344D01*
X159230389Y-110774265D01*
X159145705Y-111200000D01*
X158874295Y-111200000D01*
X158789611Y-110774265D01*
X158548451Y-110413344D01*
X158187530Y-110172184D01*
X157761795Y-110087500D01*
X157718205Y-110087500D01*
X157292470Y-110172184D01*
X156931549Y-110413344D01*
X156690389Y-110774265D01*
X156605705Y-111200000D01*
X147035318Y-111200000D01*
X146984347Y-111076642D01*
X146376557Y-110467791D01*
X145582035Y-110137876D01*
X144721739Y-110137125D01*
X143926642Y-110465653D01*
X143317791Y-111073443D01*
X142987876Y-111867965D01*
X142987125Y-112728261D01*
X130712127Y-112728261D01*
X130712875Y-111871739D01*
X130384347Y-111076642D01*
X129776557Y-110467791D01*
X128982035Y-110137876D01*
X128121739Y-110137125D01*
X127326642Y-110465653D01*
X126717791Y-111073443D01*
X126387876Y-111867965D01*
X126387125Y-112728261D01*
X117415891Y-112728261D01*
X117391830Y-112712184D01*
X116966095Y-112627500D01*
X116922505Y-112627500D01*
X116496770Y-112712184D01*
X116135849Y-112953344D01*
X115894689Y-113314265D01*
X115810005Y-113740000D01*
X115538595Y-113740000D01*
X115453911Y-113314265D01*
X115212751Y-112953344D01*
X114851830Y-112712184D01*
X114426095Y-112627500D01*
X114382505Y-112627500D01*
X113956770Y-112712184D01*
X113595849Y-112953344D01*
X113354689Y-113314265D01*
X113270005Y-113740000D01*
X103887500Y-113740000D01*
X103887500Y-111410973D01*
X113311987Y-111410973D01*
X113314395Y-111423098D01*
X113482735Y-111823204D01*
X113791375Y-112128433D01*
X114193327Y-112292317D01*
X114366800Y-112246247D01*
X114366800Y-111237500D01*
X114441800Y-111237500D01*
X114441800Y-112246247D01*
X114615273Y-112292317D01*
X115017225Y-112128433D01*
X115325865Y-111823204D01*
X115494205Y-111423098D01*
X115496613Y-111410973D01*
X115450503Y-111237500D01*
X114441800Y-111237500D01*
X114366800Y-111237500D01*
X113358097Y-111237500D01*
X113311987Y-111410973D01*
X103887500Y-111410973D01*
X103887500Y-111200000D01*
X115810005Y-111200000D01*
X115894689Y-111625735D01*
X116135849Y-111986656D01*
X116496770Y-112227816D01*
X116922505Y-112312500D01*
X116966095Y-112312500D01*
X117391830Y-112227816D01*
X117752751Y-111986656D01*
X117993911Y-111625735D01*
X118078595Y-111200000D01*
X117993911Y-110774265D01*
X117752751Y-110413344D01*
X117391830Y-110172184D01*
X116966095Y-110087500D01*
X116922505Y-110087500D01*
X116496770Y-110172184D01*
X116135849Y-110413344D01*
X115894689Y-110774265D01*
X115810005Y-111200000D01*
X103887500Y-111200000D01*
X103887500Y-110989027D01*
X113311987Y-110989027D01*
X113358097Y-111162500D01*
X114366800Y-111162500D01*
X114366800Y-110153753D01*
X114441800Y-110153753D01*
X114441800Y-111162500D01*
X115450503Y-111162500D01*
X115496613Y-110989027D01*
X115494205Y-110976902D01*
X115325865Y-110576796D01*
X115017225Y-110271567D01*
X114615273Y-110107683D01*
X114441800Y-110153753D01*
X114366800Y-110153753D01*
X114193327Y-110107683D01*
X113791375Y-110271567D01*
X113482735Y-110576796D01*
X113314395Y-110976902D01*
X113311987Y-110989027D01*
X103887500Y-110989027D01*
X103887500Y-108660000D01*
X113270005Y-108660000D01*
X113354689Y-109085735D01*
X113595849Y-109446656D01*
X113956770Y-109687816D01*
X114382505Y-109772500D01*
X114426095Y-109772500D01*
X114851830Y-109687816D01*
X115212751Y-109446656D01*
X115453911Y-109085735D01*
X115538595Y-108660000D01*
X115810005Y-108660000D01*
X115894689Y-109085735D01*
X116135849Y-109446656D01*
X116496770Y-109687816D01*
X116922505Y-109772500D01*
X116966095Y-109772500D01*
X117391830Y-109687816D01*
X117752751Y-109446656D01*
X117993911Y-109085735D01*
X118036629Y-108870973D01*
X156647687Y-108870973D01*
X156650095Y-108883098D01*
X156818435Y-109283204D01*
X157127075Y-109588433D01*
X157529027Y-109752317D01*
X157702500Y-109706247D01*
X157702500Y-108697500D01*
X157777500Y-108697500D01*
X157777500Y-109706247D01*
X157950973Y-109752317D01*
X158352925Y-109588433D01*
X158661565Y-109283204D01*
X158829905Y-108883098D01*
X158832313Y-108870973D01*
X158786203Y-108697500D01*
X157777500Y-108697500D01*
X157702500Y-108697500D01*
X156693797Y-108697500D01*
X156647687Y-108870973D01*
X118036629Y-108870973D01*
X118078595Y-108660000D01*
X159145705Y-108660000D01*
X159230389Y-109085735D01*
X159471549Y-109446656D01*
X159832470Y-109687816D01*
X160258205Y-109772500D01*
X160301795Y-109772500D01*
X160727530Y-109687816D01*
X161088451Y-109446656D01*
X161329611Y-109085735D01*
X161414295Y-108660000D01*
X161329611Y-108234265D01*
X161088451Y-107873344D01*
X160727530Y-107632184D01*
X160301795Y-107547500D01*
X160258205Y-107547500D01*
X159832470Y-107632184D01*
X159471549Y-107873344D01*
X159230389Y-108234265D01*
X159145705Y-108660000D01*
X118078595Y-108660000D01*
X118036630Y-108449027D01*
X156647687Y-108449027D01*
X156693797Y-108622500D01*
X157702500Y-108622500D01*
X157702500Y-107613753D01*
X157777500Y-107613753D01*
X157777500Y-108622500D01*
X158786203Y-108622500D01*
X158832313Y-108449027D01*
X158829905Y-108436902D01*
X158661565Y-108036796D01*
X158352925Y-107731567D01*
X157950973Y-107567683D01*
X157777500Y-107613753D01*
X157702500Y-107613753D01*
X157529027Y-107567683D01*
X157127075Y-107731567D01*
X156818435Y-108036796D01*
X156650095Y-108436902D01*
X156647687Y-108449027D01*
X118036630Y-108449027D01*
X117993911Y-108234265D01*
X117752751Y-107873344D01*
X117391830Y-107632184D01*
X116966095Y-107547500D01*
X116922505Y-107547500D01*
X116496770Y-107632184D01*
X116135849Y-107873344D01*
X115894689Y-108234265D01*
X115810005Y-108660000D01*
X115538595Y-108660000D01*
X115453911Y-108234265D01*
X115212751Y-107873344D01*
X114851830Y-107632184D01*
X114426095Y-107547500D01*
X114382505Y-107547500D01*
X113956770Y-107632184D01*
X113595849Y-107873344D01*
X113354689Y-108234265D01*
X113270005Y-108660000D01*
X103887500Y-108660000D01*
X103887500Y-106120000D01*
X113270005Y-106120000D01*
X113354689Y-106545735D01*
X113595849Y-106906656D01*
X113956770Y-107147816D01*
X114382505Y-107232500D01*
X114426095Y-107232500D01*
X114851830Y-107147816D01*
X115212751Y-106906656D01*
X115453911Y-106545735D01*
X115538595Y-106120000D01*
X115810005Y-106120000D01*
X115894689Y-106545735D01*
X116135849Y-106906656D01*
X116496770Y-107147816D01*
X116922505Y-107232500D01*
X116966095Y-107232500D01*
X117391830Y-107147816D01*
X117752751Y-106906656D01*
X117993911Y-106545735D01*
X118078595Y-106120000D01*
X156605705Y-106120000D01*
X156690389Y-106545735D01*
X156931549Y-106906656D01*
X157292470Y-107147816D01*
X157718205Y-107232500D01*
X157761795Y-107232500D01*
X158187530Y-107147816D01*
X158548451Y-106906656D01*
X158789611Y-106545735D01*
X158874295Y-106120000D01*
X159145705Y-106120000D01*
X159230389Y-106545735D01*
X159471549Y-106906656D01*
X159832470Y-107147816D01*
X160258205Y-107232500D01*
X160301795Y-107232500D01*
X160727530Y-107147816D01*
X161088451Y-106906656D01*
X161329611Y-106545735D01*
X161414295Y-106120000D01*
X161329611Y-105694265D01*
X161088451Y-105333344D01*
X160727530Y-105092184D01*
X160301795Y-105007500D01*
X160258205Y-105007500D01*
X159832470Y-105092184D01*
X159471549Y-105333344D01*
X159230389Y-105694265D01*
X159145705Y-106120000D01*
X158874295Y-106120000D01*
X158789611Y-105694265D01*
X158548451Y-105333344D01*
X158187530Y-105092184D01*
X157761795Y-105007500D01*
X157718205Y-105007500D01*
X157292470Y-105092184D01*
X156931549Y-105333344D01*
X156690389Y-105694265D01*
X156605705Y-106120000D01*
X118078595Y-106120000D01*
X117993911Y-105694265D01*
X117752751Y-105333344D01*
X117391830Y-105092184D01*
X116966095Y-105007500D01*
X116922505Y-105007500D01*
X116496770Y-105092184D01*
X116135849Y-105333344D01*
X115894689Y-105694265D01*
X115810005Y-106120000D01*
X115538595Y-106120000D01*
X115453911Y-105694265D01*
X115212751Y-105333344D01*
X114851830Y-105092184D01*
X114426095Y-105007500D01*
X114382505Y-105007500D01*
X113956770Y-105092184D01*
X113595849Y-105333344D01*
X113354689Y-105694265D01*
X113270005Y-106120000D01*
X103887500Y-106120000D01*
X103887500Y-103580000D01*
X113270005Y-103580000D01*
X113354689Y-104005735D01*
X113595849Y-104366656D01*
X113956770Y-104607816D01*
X114382505Y-104692500D01*
X114426095Y-104692500D01*
X114851830Y-104607816D01*
X115212751Y-104366656D01*
X115453911Y-104005735D01*
X115538595Y-103580000D01*
X115810005Y-103580000D01*
X115894689Y-104005735D01*
X116135849Y-104366656D01*
X116496770Y-104607816D01*
X116922505Y-104692500D01*
X116966095Y-104692500D01*
X117391830Y-104607816D01*
X117752751Y-104366656D01*
X117993911Y-104005735D01*
X118078595Y-103580000D01*
X156605705Y-103580000D01*
X156690389Y-104005735D01*
X156931549Y-104366656D01*
X157292470Y-104607816D01*
X157718205Y-104692500D01*
X157761795Y-104692500D01*
X158187530Y-104607816D01*
X158548451Y-104366656D01*
X158789611Y-104005735D01*
X158874295Y-103580000D01*
X159145705Y-103580000D01*
X159230389Y-104005735D01*
X159471549Y-104366656D01*
X159832470Y-104607816D01*
X160258205Y-104692500D01*
X160301795Y-104692500D01*
X160727530Y-104607816D01*
X161088451Y-104366656D01*
X161329611Y-104005735D01*
X161414295Y-103580000D01*
X161329611Y-103154265D01*
X161088451Y-102793344D01*
X160727530Y-102552184D01*
X160301795Y-102467500D01*
X160258205Y-102467500D01*
X159832470Y-102552184D01*
X159471549Y-102793344D01*
X159230389Y-103154265D01*
X159145705Y-103580000D01*
X158874295Y-103580000D01*
X158789611Y-103154265D01*
X158548451Y-102793344D01*
X158187530Y-102552184D01*
X157761795Y-102467500D01*
X157718205Y-102467500D01*
X157292470Y-102552184D01*
X156931549Y-102793344D01*
X156690389Y-103154265D01*
X156605705Y-103580000D01*
X118078595Y-103580000D01*
X117993911Y-103154265D01*
X117752751Y-102793344D01*
X117391830Y-102552184D01*
X116966095Y-102467500D01*
X116922505Y-102467500D01*
X116496770Y-102552184D01*
X116135849Y-102793344D01*
X115894689Y-103154265D01*
X115810005Y-103580000D01*
X115538595Y-103580000D01*
X115453911Y-103154265D01*
X115212751Y-102793344D01*
X114851830Y-102552184D01*
X114426095Y-102467500D01*
X114382505Y-102467500D01*
X113956770Y-102552184D01*
X113595849Y-102793344D01*
X113354689Y-103154265D01*
X113270005Y-103580000D01*
X103887500Y-103580000D01*
X103887500Y-101040000D01*
X113270005Y-101040000D01*
X113354689Y-101465735D01*
X113595849Y-101826656D01*
X113956770Y-102067816D01*
X114382505Y-102152500D01*
X114426095Y-102152500D01*
X114851830Y-102067816D01*
X115212751Y-101826656D01*
X115453911Y-101465735D01*
X115538595Y-101040000D01*
X115810005Y-101040000D01*
X115894689Y-101465735D01*
X116135849Y-101826656D01*
X116496770Y-102067816D01*
X116922505Y-102152500D01*
X116966095Y-102152500D01*
X117391830Y-102067816D01*
X117752751Y-101826656D01*
X117993911Y-101465735D01*
X118078595Y-101040000D01*
X156605705Y-101040000D01*
X156690389Y-101465735D01*
X156931549Y-101826656D01*
X157292470Y-102067816D01*
X157718205Y-102152500D01*
X157761795Y-102152500D01*
X158187530Y-102067816D01*
X158548451Y-101826656D01*
X158789611Y-101465735D01*
X158874295Y-101040000D01*
X159145705Y-101040000D01*
X159230389Y-101465735D01*
X159471549Y-101826656D01*
X159832470Y-102067816D01*
X160258205Y-102152500D01*
X160301795Y-102152500D01*
X160727530Y-102067816D01*
X161088451Y-101826656D01*
X161329611Y-101465735D01*
X161414295Y-101040000D01*
X161329611Y-100614265D01*
X161088451Y-100253344D01*
X160727530Y-100012184D01*
X160301795Y-99927500D01*
X160258205Y-99927500D01*
X159832470Y-100012184D01*
X159471549Y-100253344D01*
X159230389Y-100614265D01*
X159145705Y-101040000D01*
X158874295Y-101040000D01*
X158789611Y-100614265D01*
X158548451Y-100253344D01*
X158187530Y-100012184D01*
X157761795Y-99927500D01*
X157718205Y-99927500D01*
X157292470Y-100012184D01*
X156931549Y-100253344D01*
X156690389Y-100614265D01*
X156605705Y-101040000D01*
X118078595Y-101040000D01*
X117993911Y-100614265D01*
X117752751Y-100253344D01*
X117391830Y-100012184D01*
X116966095Y-99927500D01*
X116922505Y-99927500D01*
X116496770Y-100012184D01*
X116135849Y-100253344D01*
X115894689Y-100614265D01*
X115810005Y-101040000D01*
X115538595Y-101040000D01*
X115453911Y-100614265D01*
X115212751Y-100253344D01*
X114851830Y-100012184D01*
X114426095Y-99927500D01*
X114382505Y-99927500D01*
X113956770Y-100012184D01*
X113595849Y-100253344D01*
X113354689Y-100614265D01*
X113270005Y-101040000D01*
X103887500Y-101040000D01*
X103887500Y-98500000D01*
X113270005Y-98500000D01*
X113354689Y-98925735D01*
X113595849Y-99286656D01*
X113956770Y-99527816D01*
X114382505Y-99612500D01*
X114426095Y-99612500D01*
X114851830Y-99527816D01*
X115212751Y-99286656D01*
X115453911Y-98925735D01*
X115538595Y-98500000D01*
X115810005Y-98500000D01*
X115894689Y-98925735D01*
X116135849Y-99286656D01*
X116496770Y-99527816D01*
X116922505Y-99612500D01*
X116966095Y-99612500D01*
X117391830Y-99527816D01*
X117752751Y-99286656D01*
X117993911Y-98925735D01*
X118078595Y-98500000D01*
X156605705Y-98500000D01*
X156690389Y-98925735D01*
X156931549Y-99286656D01*
X157292470Y-99527816D01*
X157718205Y-99612500D01*
X157761795Y-99612500D01*
X158187530Y-99527816D01*
X158548451Y-99286656D01*
X158789611Y-98925735D01*
X158874295Y-98500000D01*
X159145705Y-98500000D01*
X159230389Y-98925735D01*
X159471549Y-99286656D01*
X159832470Y-99527816D01*
X160258205Y-99612500D01*
X160301795Y-99612500D01*
X160727530Y-99527816D01*
X161088451Y-99286656D01*
X161329611Y-98925735D01*
X161414295Y-98500000D01*
X161329611Y-98074265D01*
X161088451Y-97713344D01*
X160727530Y-97472184D01*
X160301795Y-97387500D01*
X160258205Y-97387500D01*
X159832470Y-97472184D01*
X159471549Y-97713344D01*
X159230389Y-98074265D01*
X159145705Y-98500000D01*
X158874295Y-98500000D01*
X158789611Y-98074265D01*
X158548451Y-97713344D01*
X158187530Y-97472184D01*
X157761795Y-97387500D01*
X157718205Y-97387500D01*
X157292470Y-97472184D01*
X156931549Y-97713344D01*
X156690389Y-98074265D01*
X156605705Y-98500000D01*
X118078595Y-98500000D01*
X117993911Y-98074265D01*
X117752751Y-97713344D01*
X117391830Y-97472184D01*
X116966095Y-97387500D01*
X116922505Y-97387500D01*
X116496770Y-97472184D01*
X116135849Y-97713344D01*
X115894689Y-98074265D01*
X115810005Y-98500000D01*
X115538595Y-98500000D01*
X115453911Y-98074265D01*
X115212751Y-97713344D01*
X114851830Y-97472184D01*
X114426095Y-97387500D01*
X114382505Y-97387500D01*
X113956770Y-97472184D01*
X113595849Y-97713344D01*
X113354689Y-98074265D01*
X113270005Y-98500000D01*
X103887500Y-98500000D01*
X103887500Y-95960000D01*
X113270005Y-95960000D01*
X113354689Y-96385735D01*
X113595849Y-96746656D01*
X113956770Y-96987816D01*
X114382505Y-97072500D01*
X114426095Y-97072500D01*
X114851830Y-96987816D01*
X115212751Y-96746656D01*
X115453911Y-96385735D01*
X115538595Y-95960000D01*
X115810005Y-95960000D01*
X115894689Y-96385735D01*
X116135849Y-96746656D01*
X116496770Y-96987816D01*
X116922505Y-97072500D01*
X116966095Y-97072500D01*
X117391830Y-96987816D01*
X117752751Y-96746656D01*
X117993911Y-96385735D01*
X118036629Y-96170973D01*
X156647687Y-96170973D01*
X156650095Y-96183098D01*
X156818435Y-96583204D01*
X157127075Y-96888433D01*
X157529027Y-97052317D01*
X157702500Y-97006247D01*
X157702500Y-95997500D01*
X157777500Y-95997500D01*
X157777500Y-97006247D01*
X157950973Y-97052317D01*
X158352925Y-96888433D01*
X158661565Y-96583204D01*
X158829905Y-96183098D01*
X158832313Y-96170973D01*
X158786203Y-95997500D01*
X157777500Y-95997500D01*
X157702500Y-95997500D01*
X156693797Y-95997500D01*
X156647687Y-96170973D01*
X118036629Y-96170973D01*
X118078595Y-95960000D01*
X159145705Y-95960000D01*
X159230389Y-96385735D01*
X159471549Y-96746656D01*
X159832470Y-96987816D01*
X160258205Y-97072500D01*
X160301795Y-97072500D01*
X160727530Y-96987816D01*
X161088451Y-96746656D01*
X161329611Y-96385735D01*
X161414295Y-95960000D01*
X161329611Y-95534265D01*
X161088451Y-95173344D01*
X160727530Y-94932184D01*
X160301795Y-94847500D01*
X160258205Y-94847500D01*
X159832470Y-94932184D01*
X159471549Y-95173344D01*
X159230389Y-95534265D01*
X159145705Y-95960000D01*
X118078595Y-95960000D01*
X118036630Y-95749027D01*
X156647687Y-95749027D01*
X156693797Y-95922500D01*
X157702500Y-95922500D01*
X157702500Y-94913753D01*
X157777500Y-94913753D01*
X157777500Y-95922500D01*
X158786203Y-95922500D01*
X158832313Y-95749027D01*
X158829905Y-95736902D01*
X158661565Y-95336796D01*
X158352925Y-95031567D01*
X157950973Y-94867683D01*
X157777500Y-94913753D01*
X157702500Y-94913753D01*
X157529027Y-94867683D01*
X157127075Y-95031567D01*
X156818435Y-95336796D01*
X156650095Y-95736902D01*
X156647687Y-95749027D01*
X118036630Y-95749027D01*
X117993911Y-95534265D01*
X117752751Y-95173344D01*
X117391830Y-94932184D01*
X116966095Y-94847500D01*
X116922505Y-94847500D01*
X116496770Y-94932184D01*
X116135849Y-95173344D01*
X115894689Y-95534265D01*
X115810005Y-95960000D01*
X115538595Y-95960000D01*
X115453911Y-95534265D01*
X115212751Y-95173344D01*
X114851830Y-94932184D01*
X114426095Y-94847500D01*
X114382505Y-94847500D01*
X113956770Y-94932184D01*
X113595849Y-95173344D01*
X113354689Y-95534265D01*
X113270005Y-95960000D01*
X103887500Y-95960000D01*
X103887500Y-93420000D01*
X113270005Y-93420000D01*
X113354689Y-93845735D01*
X113595849Y-94206656D01*
X113956770Y-94447816D01*
X114382505Y-94532500D01*
X114426095Y-94532500D01*
X114851830Y-94447816D01*
X115212751Y-94206656D01*
X115453911Y-93845735D01*
X115538595Y-93420000D01*
X115810005Y-93420000D01*
X115894689Y-93845735D01*
X116135849Y-94206656D01*
X116496770Y-94447816D01*
X116922505Y-94532500D01*
X116966095Y-94532500D01*
X117391830Y-94447816D01*
X117752751Y-94206656D01*
X117993911Y-93845735D01*
X118078595Y-93420000D01*
X156605705Y-93420000D01*
X156690389Y-93845735D01*
X156931549Y-94206656D01*
X157292470Y-94447816D01*
X157718205Y-94532500D01*
X157761795Y-94532500D01*
X158187530Y-94447816D01*
X158548451Y-94206656D01*
X158789611Y-93845735D01*
X158874295Y-93420000D01*
X159145705Y-93420000D01*
X159230389Y-93845735D01*
X159471549Y-94206656D01*
X159832470Y-94447816D01*
X160258205Y-94532500D01*
X160301795Y-94532500D01*
X160727530Y-94447816D01*
X161088451Y-94206656D01*
X161329611Y-93845735D01*
X161414295Y-93420000D01*
X161329611Y-92994265D01*
X161088451Y-92633344D01*
X160727530Y-92392184D01*
X160301795Y-92307500D01*
X160258205Y-92307500D01*
X159832470Y-92392184D01*
X159471549Y-92633344D01*
X159230389Y-92994265D01*
X159145705Y-93420000D01*
X158874295Y-93420000D01*
X158789611Y-92994265D01*
X158548451Y-92633344D01*
X158187530Y-92392184D01*
X157761795Y-92307500D01*
X157718205Y-92307500D01*
X157292470Y-92392184D01*
X156931549Y-92633344D01*
X156690389Y-92994265D01*
X156605705Y-93420000D01*
X118078595Y-93420000D01*
X117993911Y-92994265D01*
X117752751Y-92633344D01*
X117391830Y-92392184D01*
X116966095Y-92307500D01*
X116922505Y-92307500D01*
X116496770Y-92392184D01*
X116135849Y-92633344D01*
X115894689Y-92994265D01*
X115810005Y-93420000D01*
X115538595Y-93420000D01*
X115453911Y-92994265D01*
X115212751Y-92633344D01*
X114851830Y-92392184D01*
X114426095Y-92307500D01*
X114382505Y-92307500D01*
X113956770Y-92392184D01*
X113595849Y-92633344D01*
X113354689Y-92994265D01*
X113270005Y-93420000D01*
X103887500Y-93420000D01*
X103887500Y-90880000D01*
X113270005Y-90880000D01*
X113354689Y-91305735D01*
X113595849Y-91666656D01*
X113956770Y-91907816D01*
X114382505Y-91992500D01*
X114426095Y-91992500D01*
X114851830Y-91907816D01*
X115212751Y-91666656D01*
X115453911Y-91305735D01*
X115538595Y-90880000D01*
X115810005Y-90880000D01*
X115894689Y-91305735D01*
X116135849Y-91666656D01*
X116496770Y-91907816D01*
X116922505Y-91992500D01*
X116966095Y-91992500D01*
X117391830Y-91907816D01*
X117752751Y-91666656D01*
X117993911Y-91305735D01*
X118078595Y-90880000D01*
X156605705Y-90880000D01*
X156690389Y-91305735D01*
X156931549Y-91666656D01*
X157292470Y-91907816D01*
X157718205Y-91992500D01*
X157761795Y-91992500D01*
X158187530Y-91907816D01*
X158548451Y-91666656D01*
X158789611Y-91305735D01*
X158874295Y-90880000D01*
X159145705Y-90880000D01*
X159230389Y-91305735D01*
X159471549Y-91666656D01*
X159832470Y-91907816D01*
X160258205Y-91992500D01*
X160301795Y-91992500D01*
X160727530Y-91907816D01*
X161088451Y-91666656D01*
X161329611Y-91305735D01*
X161414295Y-90880000D01*
X161329611Y-90454265D01*
X161088451Y-90093344D01*
X160727530Y-89852184D01*
X160301795Y-89767500D01*
X160258205Y-89767500D01*
X159832470Y-89852184D01*
X159471549Y-90093344D01*
X159230389Y-90454265D01*
X159145705Y-90880000D01*
X158874295Y-90880000D01*
X158789611Y-90454265D01*
X158548451Y-90093344D01*
X158187530Y-89852184D01*
X157761795Y-89767500D01*
X157718205Y-89767500D01*
X157292470Y-89852184D01*
X156931549Y-90093344D01*
X156690389Y-90454265D01*
X156605705Y-90880000D01*
X118078595Y-90880000D01*
X117993911Y-90454265D01*
X117752751Y-90093344D01*
X117391830Y-89852184D01*
X116966095Y-89767500D01*
X116922505Y-89767500D01*
X116496770Y-89852184D01*
X116135849Y-90093344D01*
X115894689Y-90454265D01*
X115810005Y-90880000D01*
X115538595Y-90880000D01*
X115453911Y-90454265D01*
X115212751Y-90093344D01*
X114851830Y-89852184D01*
X114426095Y-89767500D01*
X114382505Y-89767500D01*
X113956770Y-89852184D01*
X113595849Y-90093344D01*
X113354689Y-90454265D01*
X113270005Y-90880000D01*
X103887500Y-90880000D01*
X103887500Y-88340000D01*
X113270005Y-88340000D01*
X113354689Y-88765735D01*
X113595849Y-89126656D01*
X113956770Y-89367816D01*
X114382505Y-89452500D01*
X114426095Y-89452500D01*
X114851830Y-89367816D01*
X115212751Y-89126656D01*
X115453911Y-88765735D01*
X115496629Y-88550973D01*
X115851987Y-88550973D01*
X115854395Y-88563098D01*
X116022735Y-88963204D01*
X116331375Y-89268433D01*
X116733327Y-89432317D01*
X116906800Y-89386247D01*
X116906800Y-88377500D01*
X116981800Y-88377500D01*
X116981800Y-89386247D01*
X117155273Y-89432317D01*
X117557225Y-89268433D01*
X117865865Y-88963204D01*
X118034205Y-88563098D01*
X118036613Y-88550973D01*
X117990503Y-88377500D01*
X116981800Y-88377500D01*
X116906800Y-88377500D01*
X115898097Y-88377500D01*
X115851987Y-88550973D01*
X115496629Y-88550973D01*
X115538595Y-88340000D01*
X156605705Y-88340000D01*
X156690389Y-88765735D01*
X156931549Y-89126656D01*
X157292470Y-89367816D01*
X157718205Y-89452500D01*
X157761795Y-89452500D01*
X158187530Y-89367816D01*
X158548451Y-89126656D01*
X158789611Y-88765735D01*
X158874295Y-88340000D01*
X159145705Y-88340000D01*
X159230389Y-88765735D01*
X159471549Y-89126656D01*
X159832470Y-89367816D01*
X160258205Y-89452500D01*
X160301795Y-89452500D01*
X160727530Y-89367816D01*
X161088451Y-89126656D01*
X161329611Y-88765735D01*
X161414295Y-88340000D01*
X161329611Y-87914265D01*
X161088451Y-87553344D01*
X160727530Y-87312184D01*
X160301795Y-87227500D01*
X160258205Y-87227500D01*
X159832470Y-87312184D01*
X159471549Y-87553344D01*
X159230389Y-87914265D01*
X159145705Y-88340000D01*
X158874295Y-88340000D01*
X158789611Y-87914265D01*
X158548451Y-87553344D01*
X158187530Y-87312184D01*
X157761795Y-87227500D01*
X157718205Y-87227500D01*
X157292470Y-87312184D01*
X156931549Y-87553344D01*
X156690389Y-87914265D01*
X156605705Y-88340000D01*
X115538595Y-88340000D01*
X115496630Y-88129027D01*
X115851987Y-88129027D01*
X115898097Y-88302500D01*
X116906800Y-88302500D01*
X116906800Y-87293753D01*
X116981800Y-87293753D01*
X116981800Y-88302500D01*
X117990503Y-88302500D01*
X118036613Y-88129027D01*
X118034205Y-88116902D01*
X117865865Y-87716796D01*
X117557225Y-87411567D01*
X117155273Y-87247683D01*
X116981800Y-87293753D01*
X116906800Y-87293753D01*
X116733327Y-87247683D01*
X116331375Y-87411567D01*
X116022735Y-87716796D01*
X115854395Y-88116902D01*
X115851987Y-88129027D01*
X115496630Y-88129027D01*
X115453911Y-87914265D01*
X115212751Y-87553344D01*
X114851830Y-87312184D01*
X114426095Y-87227500D01*
X114382505Y-87227500D01*
X113956770Y-87312184D01*
X113595849Y-87553344D01*
X113354689Y-87914265D01*
X113270005Y-88340000D01*
X103887500Y-88340000D01*
X103887500Y-85800000D01*
X113270005Y-85800000D01*
X113354689Y-86225735D01*
X113595849Y-86586656D01*
X113956770Y-86827816D01*
X114382505Y-86912500D01*
X114426095Y-86912500D01*
X114851830Y-86827816D01*
X115212751Y-86586656D01*
X115453911Y-86225735D01*
X115538595Y-85800000D01*
X115810005Y-85800000D01*
X115894689Y-86225735D01*
X116135849Y-86586656D01*
X116496770Y-86827816D01*
X116922505Y-86912500D01*
X116966095Y-86912500D01*
X117391830Y-86827816D01*
X117752751Y-86586656D01*
X117993911Y-86225735D01*
X118078595Y-85800000D01*
X156605705Y-85800000D01*
X156690389Y-86225735D01*
X156931549Y-86586656D01*
X157292470Y-86827816D01*
X157718205Y-86912500D01*
X157761795Y-86912500D01*
X158187530Y-86827816D01*
X158548451Y-86586656D01*
X158789611Y-86225735D01*
X158832329Y-86010973D01*
X159187687Y-86010973D01*
X159190095Y-86023098D01*
X159358435Y-86423204D01*
X159667075Y-86728433D01*
X160069027Y-86892317D01*
X160242500Y-86846247D01*
X160242500Y-85837500D01*
X160317500Y-85837500D01*
X160317500Y-86846247D01*
X160490973Y-86892317D01*
X160892925Y-86728433D01*
X161201565Y-86423204D01*
X161369905Y-86023098D01*
X161372313Y-86010973D01*
X161326203Y-85837500D01*
X160317500Y-85837500D01*
X160242500Y-85837500D01*
X159233797Y-85837500D01*
X159187687Y-86010973D01*
X158832329Y-86010973D01*
X158874295Y-85800000D01*
X158832330Y-85589027D01*
X159187687Y-85589027D01*
X159233797Y-85762500D01*
X160242500Y-85762500D01*
X160242500Y-84753753D01*
X160317500Y-84753753D01*
X160317500Y-85762500D01*
X161326203Y-85762500D01*
X161372313Y-85589027D01*
X161369905Y-85576902D01*
X161201565Y-85176796D01*
X160892925Y-84871567D01*
X160490973Y-84707683D01*
X160317500Y-84753753D01*
X160242500Y-84753753D01*
X160069027Y-84707683D01*
X159667075Y-84871567D01*
X159358435Y-85176796D01*
X159190095Y-85576902D01*
X159187687Y-85589027D01*
X158832330Y-85589027D01*
X158789611Y-85374265D01*
X158548451Y-85013344D01*
X158187530Y-84772184D01*
X157761795Y-84687500D01*
X157718205Y-84687500D01*
X157292470Y-84772184D01*
X156931549Y-85013344D01*
X156690389Y-85374265D01*
X156605705Y-85800000D01*
X118078595Y-85800000D01*
X117993911Y-85374265D01*
X117752751Y-85013344D01*
X117391830Y-84772184D01*
X116966095Y-84687500D01*
X116922505Y-84687500D01*
X116496770Y-84772184D01*
X116135849Y-85013344D01*
X115894689Y-85374265D01*
X115810005Y-85800000D01*
X115538595Y-85800000D01*
X115453911Y-85374265D01*
X115212751Y-85013344D01*
X114851830Y-84772184D01*
X114426095Y-84687500D01*
X114382505Y-84687500D01*
X113956770Y-84772184D01*
X113595849Y-85013344D01*
X113354689Y-85374265D01*
X113270005Y-85800000D01*
X103887500Y-85800000D01*
X103887500Y-83260000D01*
X113270005Y-83260000D01*
X113354689Y-83685735D01*
X113595849Y-84046656D01*
X113956770Y-84287816D01*
X114382505Y-84372500D01*
X114426095Y-84372500D01*
X114851830Y-84287816D01*
X115212751Y-84046656D01*
X115453911Y-83685735D01*
X115538595Y-83260000D01*
X115810005Y-83260000D01*
X115894689Y-83685735D01*
X116135849Y-84046656D01*
X116496770Y-84287816D01*
X116922505Y-84372500D01*
X116966095Y-84372500D01*
X117391830Y-84287816D01*
X117752751Y-84046656D01*
X117993911Y-83685735D01*
X118078595Y-83260000D01*
X156605705Y-83260000D01*
X156690389Y-83685735D01*
X156931549Y-84046656D01*
X157292470Y-84287816D01*
X157718205Y-84372500D01*
X157761795Y-84372500D01*
X158187530Y-84287816D01*
X158548451Y-84046656D01*
X158789611Y-83685735D01*
X158874295Y-83260000D01*
X159145705Y-83260000D01*
X159230389Y-83685735D01*
X159471549Y-84046656D01*
X159832470Y-84287816D01*
X160258205Y-84372500D01*
X160301795Y-84372500D01*
X160727530Y-84287816D01*
X161088451Y-84046656D01*
X161329611Y-83685735D01*
X161414295Y-83260000D01*
X161329611Y-82834265D01*
X161088451Y-82473344D01*
X160727530Y-82232184D01*
X160301795Y-82147500D01*
X160258205Y-82147500D01*
X159832470Y-82232184D01*
X159471549Y-82473344D01*
X159230389Y-82834265D01*
X159145705Y-83260000D01*
X158874295Y-83260000D01*
X158789611Y-82834265D01*
X158548451Y-82473344D01*
X158187530Y-82232184D01*
X157761795Y-82147500D01*
X157718205Y-82147500D01*
X157292470Y-82232184D01*
X156931549Y-82473344D01*
X156690389Y-82834265D01*
X156605705Y-83260000D01*
X118078595Y-83260000D01*
X117993911Y-82834265D01*
X117752751Y-82473344D01*
X117391830Y-82232184D01*
X116966095Y-82147500D01*
X116922505Y-82147500D01*
X116496770Y-82232184D01*
X116135849Y-82473344D01*
X115894689Y-82834265D01*
X115810005Y-83260000D01*
X115538595Y-83260000D01*
X115453911Y-82834265D01*
X115212751Y-82473344D01*
X114851830Y-82232184D01*
X114426095Y-82147500D01*
X114382505Y-82147500D01*
X113956770Y-82232184D01*
X113595849Y-82473344D01*
X113354689Y-82834265D01*
X113270005Y-83260000D01*
X103887500Y-83260000D01*
X103887500Y-80720000D01*
X113270005Y-80720000D01*
X113354689Y-81145735D01*
X113595849Y-81506656D01*
X113956770Y-81747816D01*
X114382505Y-81832500D01*
X114426095Y-81832500D01*
X114851830Y-81747816D01*
X115212751Y-81506656D01*
X115453911Y-81145735D01*
X115538595Y-80720000D01*
X115810005Y-80720000D01*
X115894689Y-81145735D01*
X116135849Y-81506656D01*
X116496770Y-81747816D01*
X116922505Y-81832500D01*
X116966095Y-81832500D01*
X117391830Y-81747816D01*
X117752751Y-81506656D01*
X117993911Y-81145735D01*
X118078595Y-80720000D01*
X156605705Y-80720000D01*
X156690389Y-81145735D01*
X156931549Y-81506656D01*
X157292470Y-81747816D01*
X157718205Y-81832500D01*
X157761795Y-81832500D01*
X158187530Y-81747816D01*
X158548451Y-81506656D01*
X158789611Y-81145735D01*
X158874295Y-80720000D01*
X159145705Y-80720000D01*
X159230389Y-81145735D01*
X159471549Y-81506656D01*
X159832470Y-81747816D01*
X160258205Y-81832500D01*
X160301795Y-81832500D01*
X160727530Y-81747816D01*
X161088451Y-81506656D01*
X161329611Y-81145735D01*
X161414295Y-80720000D01*
X161329611Y-80294265D01*
X161088451Y-79933344D01*
X160727530Y-79692184D01*
X160301795Y-79607500D01*
X160258205Y-79607500D01*
X159832470Y-79692184D01*
X159471549Y-79933344D01*
X159230389Y-80294265D01*
X159145705Y-80720000D01*
X158874295Y-80720000D01*
X158789611Y-80294265D01*
X158548451Y-79933344D01*
X158187530Y-79692184D01*
X157761795Y-79607500D01*
X157718205Y-79607500D01*
X157292470Y-79692184D01*
X156931549Y-79933344D01*
X156690389Y-80294265D01*
X156605705Y-80720000D01*
X118078595Y-80720000D01*
X117993911Y-80294265D01*
X117752751Y-79933344D01*
X117391830Y-79692184D01*
X116966095Y-79607500D01*
X116922505Y-79607500D01*
X116496770Y-79692184D01*
X116135849Y-79933344D01*
X115894689Y-80294265D01*
X115810005Y-80720000D01*
X115538595Y-80720000D01*
X115453911Y-80294265D01*
X115212751Y-79933344D01*
X114851830Y-79692184D01*
X114426095Y-79607500D01*
X114382505Y-79607500D01*
X113956770Y-79692184D01*
X113595849Y-79933344D01*
X113354689Y-80294265D01*
X113270005Y-80720000D01*
X103887500Y-80720000D01*
X103887500Y-78390973D01*
X113311987Y-78390973D01*
X113314395Y-78403098D01*
X113482735Y-78803204D01*
X113791375Y-79108433D01*
X114193327Y-79272317D01*
X114366800Y-79226247D01*
X114366800Y-78217500D01*
X114441800Y-78217500D01*
X114441800Y-79226247D01*
X114615273Y-79272317D01*
X115017225Y-79108433D01*
X115325865Y-78803204D01*
X115494205Y-78403098D01*
X115496613Y-78390973D01*
X115450503Y-78217500D01*
X114441800Y-78217500D01*
X114366800Y-78217500D01*
X113358097Y-78217500D01*
X113311987Y-78390973D01*
X103887500Y-78390973D01*
X103887500Y-78180000D01*
X115810005Y-78180000D01*
X115894689Y-78605735D01*
X116135849Y-78966656D01*
X116496770Y-79207816D01*
X116922505Y-79292500D01*
X116966095Y-79292500D01*
X117391830Y-79207816D01*
X117752751Y-78966656D01*
X117993911Y-78605735D01*
X118078595Y-78180000D01*
X156605705Y-78180000D01*
X156690389Y-78605735D01*
X156931549Y-78966656D01*
X157292470Y-79207816D01*
X157718205Y-79292500D01*
X157761795Y-79292500D01*
X158187530Y-79207816D01*
X158548451Y-78966656D01*
X158789611Y-78605735D01*
X158874295Y-78180000D01*
X159145705Y-78180000D01*
X159230389Y-78605735D01*
X159471549Y-78966656D01*
X159832470Y-79207816D01*
X160258205Y-79292500D01*
X160301795Y-79292500D01*
X160727530Y-79207816D01*
X161088451Y-78966656D01*
X161329611Y-78605735D01*
X161414295Y-78180000D01*
X161329611Y-77754265D01*
X161088451Y-77393344D01*
X160727530Y-77152184D01*
X160301795Y-77067500D01*
X160258205Y-77067500D01*
X159832470Y-77152184D01*
X159471549Y-77393344D01*
X159230389Y-77754265D01*
X159145705Y-78180000D01*
X158874295Y-78180000D01*
X158789611Y-77754265D01*
X158548451Y-77393344D01*
X158187530Y-77152184D01*
X157761795Y-77067500D01*
X157718205Y-77067500D01*
X157292470Y-77152184D01*
X156931549Y-77393344D01*
X156690389Y-77754265D01*
X156605705Y-78180000D01*
X118078595Y-78180000D01*
X117993911Y-77754265D01*
X117752751Y-77393344D01*
X117391830Y-77152184D01*
X116966095Y-77067500D01*
X116922505Y-77067500D01*
X116496770Y-77152184D01*
X116135849Y-77393344D01*
X115894689Y-77754265D01*
X115810005Y-78180000D01*
X103887500Y-78180000D01*
X103887500Y-77969027D01*
X113311987Y-77969027D01*
X113358097Y-78142500D01*
X114366800Y-78142500D01*
X114366800Y-77133753D01*
X114441800Y-77133753D01*
X114441800Y-78142500D01*
X115450503Y-78142500D01*
X115496613Y-77969027D01*
X115494205Y-77956902D01*
X115325865Y-77556796D01*
X115017225Y-77251567D01*
X114615273Y-77087683D01*
X114441800Y-77133753D01*
X114366800Y-77133753D01*
X114193327Y-77087683D01*
X113791375Y-77251567D01*
X113482735Y-77556796D01*
X113314395Y-77956902D01*
X113311987Y-77969027D01*
X103887500Y-77969027D01*
X103887500Y-75640000D01*
X113270005Y-75640000D01*
X113354689Y-76065735D01*
X113595849Y-76426656D01*
X113956770Y-76667816D01*
X114382505Y-76752500D01*
X114426095Y-76752500D01*
X114851830Y-76667816D01*
X115212751Y-76426656D01*
X115453911Y-76065735D01*
X115538595Y-75640000D01*
X115810005Y-75640000D01*
X115894689Y-76065735D01*
X116135849Y-76426656D01*
X116496770Y-76667816D01*
X116922505Y-76752500D01*
X116966095Y-76752500D01*
X117391830Y-76667816D01*
X117752751Y-76426656D01*
X117993911Y-76065735D01*
X118078595Y-75640000D01*
X156605705Y-75640000D01*
X156690389Y-76065735D01*
X156931549Y-76426656D01*
X157292470Y-76667816D01*
X157718205Y-76752500D01*
X157761795Y-76752500D01*
X158187530Y-76667816D01*
X158548451Y-76426656D01*
X158789611Y-76065735D01*
X158832329Y-75850973D01*
X159187687Y-75850973D01*
X159190095Y-75863098D01*
X159358435Y-76263204D01*
X159667075Y-76568433D01*
X160069027Y-76732317D01*
X160242500Y-76686247D01*
X160242500Y-75677500D01*
X160317500Y-75677500D01*
X160317500Y-76686247D01*
X160490973Y-76732317D01*
X160892925Y-76568433D01*
X161201565Y-76263204D01*
X161369905Y-75863098D01*
X161372313Y-75850973D01*
X161326203Y-75677500D01*
X160317500Y-75677500D01*
X160242500Y-75677500D01*
X159233797Y-75677500D01*
X159187687Y-75850973D01*
X158832329Y-75850973D01*
X158874295Y-75640000D01*
X158832330Y-75429027D01*
X159187687Y-75429027D01*
X159233797Y-75602500D01*
X160242500Y-75602500D01*
X160242500Y-74593753D01*
X160317500Y-74593753D01*
X160317500Y-75602500D01*
X161326203Y-75602500D01*
X161372313Y-75429027D01*
X161369905Y-75416902D01*
X161201565Y-75016796D01*
X160892925Y-74711567D01*
X160490973Y-74547683D01*
X160317500Y-74593753D01*
X160242500Y-74593753D01*
X160069027Y-74547683D01*
X159667075Y-74711567D01*
X159358435Y-75016796D01*
X159190095Y-75416902D01*
X159187687Y-75429027D01*
X158832330Y-75429027D01*
X158789611Y-75214265D01*
X158548451Y-74853344D01*
X158187530Y-74612184D01*
X157761795Y-74527500D01*
X157718205Y-74527500D01*
X157292470Y-74612184D01*
X156931549Y-74853344D01*
X156690389Y-75214265D01*
X156605705Y-75640000D01*
X118078595Y-75640000D01*
X117993911Y-75214265D01*
X117752751Y-74853344D01*
X117391830Y-74612184D01*
X116966095Y-74527500D01*
X116922505Y-74527500D01*
X116496770Y-74612184D01*
X116135849Y-74853344D01*
X115894689Y-75214265D01*
X115810005Y-75640000D01*
X115538595Y-75640000D01*
X115453911Y-75214265D01*
X115212751Y-74853344D01*
X114851830Y-74612184D01*
X114426095Y-74527500D01*
X114382505Y-74527500D01*
X113956770Y-74612184D01*
X113595849Y-74853344D01*
X113354689Y-75214265D01*
X113270005Y-75640000D01*
X103887500Y-75640000D01*
X103887500Y-73100000D01*
X113270005Y-73100000D01*
X113354689Y-73525735D01*
X113595849Y-73886656D01*
X113956770Y-74127816D01*
X114382505Y-74212500D01*
X114426095Y-74212500D01*
X114851830Y-74127816D01*
X115212751Y-73886656D01*
X115453911Y-73525735D01*
X115538595Y-73100000D01*
X115810005Y-73100000D01*
X115894689Y-73525735D01*
X116135849Y-73886656D01*
X116496770Y-74127816D01*
X116922505Y-74212500D01*
X116966095Y-74212500D01*
X117391830Y-74127816D01*
X117752751Y-73886656D01*
X117993911Y-73525735D01*
X118078595Y-73100000D01*
X156605705Y-73100000D01*
X156690389Y-73525735D01*
X156931549Y-73886656D01*
X157292470Y-74127816D01*
X157718205Y-74212500D01*
X157761795Y-74212500D01*
X158187530Y-74127816D01*
X158548451Y-73886656D01*
X158789611Y-73525735D01*
X158874295Y-73100000D01*
X159145705Y-73100000D01*
X159230389Y-73525735D01*
X159471549Y-73886656D01*
X159832470Y-74127816D01*
X160258205Y-74212500D01*
X160301795Y-74212500D01*
X160727530Y-74127816D01*
X161088451Y-73886656D01*
X161329611Y-73525735D01*
X161414295Y-73100000D01*
X161329611Y-72674265D01*
X161088451Y-72313344D01*
X160727530Y-72072184D01*
X160301795Y-71987500D01*
X160258205Y-71987500D01*
X159832470Y-72072184D01*
X159471549Y-72313344D01*
X159230389Y-72674265D01*
X159145705Y-73100000D01*
X158874295Y-73100000D01*
X158789611Y-72674265D01*
X158548451Y-72313344D01*
X158187530Y-72072184D01*
X157761795Y-71987500D01*
X157718205Y-71987500D01*
X157292470Y-72072184D01*
X156931549Y-72313344D01*
X156690389Y-72674265D01*
X156605705Y-73100000D01*
X118078595Y-73100000D01*
X117993911Y-72674265D01*
X117752751Y-72313344D01*
X117391830Y-72072184D01*
X116966095Y-71987500D01*
X116922505Y-71987500D01*
X116496770Y-72072184D01*
X116135849Y-72313344D01*
X115894689Y-72674265D01*
X115810005Y-73100000D01*
X115538595Y-73100000D01*
X115453911Y-72674265D01*
X115212751Y-72313344D01*
X114851830Y-72072184D01*
X114426095Y-71987500D01*
X114382505Y-71987500D01*
X113956770Y-72072184D01*
X113595849Y-72313344D01*
X113354689Y-72674265D01*
X113270005Y-73100000D01*
X103887500Y-73100000D01*
X103887500Y-70560000D01*
X113270005Y-70560000D01*
X113354689Y-70985735D01*
X113595849Y-71346656D01*
X113956770Y-71587816D01*
X114382505Y-71672500D01*
X114426095Y-71672500D01*
X114851830Y-71587816D01*
X115212751Y-71346656D01*
X115453911Y-70985735D01*
X115538595Y-70560000D01*
X115810005Y-70560000D01*
X115894689Y-70985735D01*
X116135849Y-71346656D01*
X116496770Y-71587816D01*
X116922505Y-71672500D01*
X116966095Y-71672500D01*
X117391830Y-71587816D01*
X117752751Y-71346656D01*
X117993911Y-70985735D01*
X118078595Y-70560000D01*
X156605705Y-70560000D01*
X156690389Y-70985735D01*
X156931549Y-71346656D01*
X157292470Y-71587816D01*
X157718205Y-71672500D01*
X157761795Y-71672500D01*
X158187530Y-71587816D01*
X158548451Y-71346656D01*
X158789611Y-70985735D01*
X158874295Y-70560000D01*
X159145705Y-70560000D01*
X159230389Y-70985735D01*
X159471549Y-71346656D01*
X159832470Y-71587816D01*
X160258205Y-71672500D01*
X160301795Y-71672500D01*
X160727530Y-71587816D01*
X161088451Y-71346656D01*
X161329611Y-70985735D01*
X161414295Y-70560000D01*
X161329611Y-70134265D01*
X161088451Y-69773344D01*
X160727530Y-69532184D01*
X160301795Y-69447500D01*
X160258205Y-69447500D01*
X159832470Y-69532184D01*
X159471549Y-69773344D01*
X159230389Y-70134265D01*
X159145705Y-70560000D01*
X158874295Y-70560000D01*
X158789611Y-70134265D01*
X158548451Y-69773344D01*
X158187530Y-69532184D01*
X157761795Y-69447500D01*
X157718205Y-69447500D01*
X157292470Y-69532184D01*
X156931549Y-69773344D01*
X156690389Y-70134265D01*
X156605705Y-70560000D01*
X118078595Y-70560000D01*
X117993911Y-70134265D01*
X117752751Y-69773344D01*
X117391830Y-69532184D01*
X116966095Y-69447500D01*
X116922505Y-69447500D01*
X116496770Y-69532184D01*
X116135849Y-69773344D01*
X115894689Y-70134265D01*
X115810005Y-70560000D01*
X115538595Y-70560000D01*
X115453911Y-70134265D01*
X115212751Y-69773344D01*
X114851830Y-69532184D01*
X114426095Y-69447500D01*
X114382505Y-69447500D01*
X113956770Y-69532184D01*
X113595849Y-69773344D01*
X113354689Y-70134265D01*
X113270005Y-70560000D01*
X103887500Y-70560000D01*
X103887500Y-67170000D01*
X113286658Y-67170000D01*
X113286658Y-68870000D01*
X113304962Y-68967276D01*
X113362452Y-69056619D01*
X113450172Y-69116556D01*
X113554300Y-69137642D01*
X115254300Y-69137642D01*
X115351576Y-69119338D01*
X115440919Y-69061848D01*
X115500856Y-68974128D01*
X115521942Y-68870000D01*
X115521942Y-68434900D01*
X115892534Y-68434900D01*
X115894689Y-68445735D01*
X116135849Y-68806656D01*
X116496770Y-69047816D01*
X116922505Y-69132500D01*
X116966095Y-69132500D01*
X117391830Y-69047816D01*
X117752751Y-68806656D01*
X117993911Y-68445735D01*
X118078595Y-68020000D01*
X117993911Y-67594265D01*
X117752751Y-67233344D01*
X117391830Y-66992184D01*
X116966095Y-66907500D01*
X116922505Y-66907500D01*
X116496770Y-66992184D01*
X116135849Y-67233344D01*
X115894689Y-67594265D01*
X115892534Y-67605100D01*
X115521942Y-67605100D01*
X115521942Y-67170000D01*
X115503638Y-67072724D01*
X115446148Y-66983381D01*
X115358428Y-66923444D01*
X115254300Y-66902358D01*
X113554300Y-66902358D01*
X113457024Y-66920662D01*
X113367681Y-66978152D01*
X113307744Y-67065872D01*
X113286658Y-67170000D01*
X103887500Y-67170000D01*
X103887500Y-64637500D01*
X127154495Y-64637500D01*
X126717791Y-65073443D01*
M02*
